G04 DipTrace 3.0.0.1*
G04 Limbus-modelD-rev01.GTL*
%MOMM*%
G04 #@! TF.FileFunction,Copper,L1,Top*
G04 #@! TF.Part,Single*
%AMOUTLINE0*
4,1,4,
-0.2003,0.89993,
0.1997,0.90007,
0.2003,-0.89993,
-0.1997,-0.90007,
-0.2003,0.89993,
0*%
G04 #@! TA.AperFunction,Conductor*
%ADD13C,0.33*%
%ADD14C,0.7*%
%ADD15C,0.4*%
%ADD16C,0.6*%
%ADD17C,0.5*%
%ADD18C,0.8*%
%ADD19C,0.35*%
G04 #@! TA.AperFunction,ComponentPad*
%ADD22R,1.6X1.6*%
%ADD23C,1.7*%
%ADD24C,1.8*%
%ADD25R,1.0X1.1*%
%ADD27R,1.1X1.0*%
%ADD28R,1.3X1.5*%
%ADD29C,0.7874*%
%ADD31R,1.25X0.65*%
%ADD35R,0.5X1.9*%
%ADD36R,1.9X0.5*%
%ADD38R,0.5X1.0*%
%ADD39R,2.5X1.6*%
%ADD42R,0.6X2.2*%
%ADD44R,1.3X0.6*%
%ADD45R,1.0X1.7*%
G04 #@! TA.AperFunction,ComponentPad*
%ADD46C,1.5*%
%ADD47C,1.6*%
G04 #@! TA.AperFunction,ViaPad*
%ADD48C,1.016*%
%ADD94OUTLINE0*%
%FSLAX35Y35*%
G04*
G71*
G90*
G75*
G01*
G04 Top*
%LPD*%
X2254750Y2860127D2*
D13*
Y3079003D1*
X2170130Y3163623D1*
X2190623D1*
X2174750Y2860127D2*
Y2889447D1*
X2047750Y3016447D1*
Y3163623D1*
X2024750Y2710127D2*
Y2737500D1*
X1920750Y2841500D1*
Y3163623D1*
X3365000Y2950000D2*
X3315000D1*
X3255000Y3010000D1*
X3215000D1*
X3075000Y3110000D2*
X3115000D1*
X3215000Y3010000D1*
X2574750Y2860127D2*
Y3035123D1*
X2682927Y3143300D1*
Y3333800D1*
X2714500Y3365373D1*
X2919627D1*
X3075000Y3210000D1*
Y3110000D1*
X2334750Y2860127D2*
Y3174877D1*
X2349377D1*
X2024750Y2550127D2*
X1894623D1*
X1841373Y2603377D1*
Y2984377D1*
X1789113Y3036637D1*
X1619140D1*
X1460373Y3079623D2*
X1619140D1*
Y3036637D1*
Y2820953D2*
Y2809720D1*
X1587387D1*
X1539757Y2762090D1*
X1460373D1*
Y2757873D1*
X1619140Y2820953D2*
X1699047D1*
X1746123Y2773877D1*
Y2583877D1*
X1855000Y2475000D1*
X2029623D1*
X2024750Y2470127D1*
Y2150127D2*
X1770127D1*
X1730000Y2110000D1*
X1896753Y1570000D2*
X2005000D1*
X2030000Y1595000D1*
Y1955000D1*
X2130000Y2055000D1*
X2174750D1*
Y2000127D1*
X2254750D2*
Y1855000D1*
X2180000D1*
X2100000Y1775000D1*
Y1515000D1*
X2060000Y1475000D1*
X1896753D1*
X2885000Y1990000D2*
X2884750Y2150127D1*
Y2390127D2*
X3059873D1*
X3175103Y2274897D1*
Y2084897D1*
X3195000Y2065000D1*
X3215000Y2085000D1*
X3340000Y1960000D1*
Y1851210D1*
X3349747Y1841463D1*
Y1762080D1*
X3195000Y2070000D2*
Y2065000D1*
X2884750Y2470127D2*
Y2465000D1*
X2750000D1*
X2670000Y2385000D1*
Y2200000D1*
X2665000D1*
X1344643Y1349287D2*
D15*
Y1380000D1*
X2115000D1*
X2230000Y1495000D1*
X2024750Y2310127D2*
D13*
X2317013D1*
X2333740Y2293400D1*
X2713740Y2558403D2*
X2800597D1*
X2808873Y2550127D1*
X2884750D1*
X3159227Y2555913D2*
Y2560773D1*
X3089873Y2630127D1*
X2884750D1*
X3730747Y2342080D2*
Y2229253D1*
X3825000Y2135000D1*
X3683170Y1301670D2*
Y1211830D1*
X3685000Y1210000D1*
X2884750Y2710127D2*
X3219873D1*
X3260000Y2670000D1*
X3245000D1*
Y2655000D1*
X3270363Y2629637D1*
Y2199637D1*
X3476760Y1993240D1*
Y1762093D1*
X3476747Y1762080D1*
X3810170Y1428670D2*
Y1460423D1*
X3921307Y1571560D1*
X4020000Y1670253D1*
Y2361960D1*
X3881960Y2500000D1*
X3880000D1*
X3970000Y1610000D2*
Y1571560D1*
X3921307D1*
X2734750Y2860127D2*
X2914873D1*
X2955000Y2820000D1*
X3603747Y2342080D2*
Y2460747D1*
X3667000Y2524000D1*
X3683170Y1428670D2*
Y1460437D1*
X3830000Y1607267D1*
Y1805000D1*
X3900000Y1875000D1*
Y1985000D1*
X3860000Y2025000D1*
X3740000D1*
X3603747Y2161253D1*
Y2342080D1*
X2024750Y2230127D2*
X2198777D1*
X2254133Y2174770D1*
X1174643Y1492177D2*
Y1635067D1*
Y1734643D1*
X1210000Y1770000D1*
X1425000D1*
X1465000Y1730000D1*
Y1635000D1*
X1530000Y1570000D1*
X1595000D1*
X3075000Y2940000D2*
Y2935000D1*
X3170000Y2840000D1*
X3215000D1*
X2412900Y2682820D2*
X2414750Y2684670D1*
Y2860127D1*
X1485000Y1250000D2*
X1456397D1*
X1381300Y1174903D1*
X1364903D1*
X3730747Y1762080D2*
Y1865747D1*
X3780000Y1915000D1*
X1750000Y1595000D2*
Y1570000D1*
X1595000D1*
X1135000Y3665000D2*
D16*
Y3410000D1*
X1140000Y3405000D1*
X1127000Y2932123D2*
D13*
Y3155803D1*
X1158750Y3187553D1*
X1173093Y3201897D1*
X1322227D1*
X1360373Y3163750D1*
Y3079627D1*
X1750000Y1595000D2*
Y1780000D1*
X1780000Y1810000D1*
X3075000Y2940000D2*
X3046500Y2968500D1*
X2952627D1*
X2492250Y3301877D2*
X2539873D1*
X2587500Y3254250D1*
X2825623D2*
Y3238373D1*
X2905003D1*
X2950000Y3193377D1*
Y2971127D1*
X2952627Y2968500D1*
X2334750Y2000127D2*
Y1694000D1*
X2249300D1*
X2494750Y2000127D2*
Y1874750D1*
X2350000Y1730000D1*
X2285300D1*
X2249300Y1694000D1*
X3556170Y1301670D2*
Y1211170D1*
X3500000Y1155000D1*
X3320000D1*
X3280000Y1195000D1*
X1158750Y3206627D2*
Y3187553D1*
X2565000Y1585000D2*
X2490000D1*
X2405000Y1670000D1*
X2787500Y1660387D2*
Y1532500D1*
X2715000Y1460000D1*
X2485000D1*
X2400000Y1545000D1*
Y1665000D1*
X2405000Y1670000D1*
X2047750Y3333623D2*
Y3377750D1*
X2448127Y3778127D1*
X2793877D1*
X2492250Y3131877D2*
Y2941750D1*
X2494750Y2939250D1*
Y2860127D1*
X2654750Y2000127D2*
Y1855247D1*
X2705000Y1804997D1*
Y1660357D1*
X2734750Y2000127D2*
X2725000D1*
Y1960000D1*
X2870000Y1815000D1*
Y1660413D1*
X1174643Y1349287D2*
Y1175163D1*
X1174903Y1174903D1*
X1780000Y1955000D2*
X1880000D1*
X1920000Y1915000D1*
Y1675000D1*
X1906753D1*
X1896753Y1665000D1*
X2920877Y3694123D2*
Y3698750D1*
X3046250D1*
X3170000Y3575000D1*
X3743127D1*
X3895000Y3423127D1*
Y3275877D1*
X3800000Y3180877D1*
Y3020000D1*
X3945000Y2875000D1*
Y2754373D1*
X3841627Y2651000D1*
X3794000D1*
X2190623Y3333623D2*
X2158873D1*
X2492250Y3667000D1*
X2920877D1*
Y3694123D1*
X1920750Y3333623D2*
X1635313D1*
X1563937Y3405000D1*
X1460000D1*
X1344643Y1635067D2*
Y1492177D1*
X1595000Y1475000D2*
X1361820D1*
X1344643Y1492177D1*
X2248740Y2413403D2*
X2252727D1*
X2269130Y2397000D1*
X2017877D1*
X2024750Y2390127D1*
X3556170Y1428670D2*
X3548670D1*
X3485163Y1365163D1*
X3334837D1*
X3259860Y1440140D1*
X3175000Y1525000D1*
Y1745000D1*
X3025000Y1895000D1*
X3030000D1*
X3050000Y1915000D1*
X3045000Y1220000D2*
Y1225280D1*
X3259860Y1440140D1*
X2458740Y2553403D2*
X2440230Y2528327D1*
X2477875Y2565972D1*
D16*
X2491923Y2551923D1*
X2654750Y2714750D1*
D17*
Y2860127D1*
X1619140Y2650953D2*
D13*
Y2635077D1*
D16*
X1360373D1*
D17*
Y2757874D1*
X1127000Y2762123D2*
D15*
X1115000D1*
X2565000Y1755000D2*
D13*
X2590000D1*
Y1795000D1*
X2574750Y1810250D1*
Y2000127D1*
X1595000Y1665000D2*
X1645000D1*
Y1810000D1*
Y1955000D1*
X1610000D1*
X1158763Y2428873D2*
X1158767Y2411923D1*
X1158763Y2174873D2*
D14*
Y2428873D1*
X2757300Y3504100D2*
D16*
Y3476500D1*
X3603500D1*
X3720000Y3360000D1*
X3794000Y2841000D2*
X3685000Y2950000D1*
Y3325000D1*
D13*
X3720000Y3360000D1*
X2757300Y3504100D2*
X2900853D1*
X2920877Y3524123D1*
X1741300Y3504100D2*
Y3513417D1*
D14*
X1587437Y3667280D1*
X1412793D1*
X1301623Y3556110D1*
Y3333627D1*
D13*
X1428623Y3206627D1*
X1603247D1*
X1619140Y3190733D1*
Y3206637D1*
X1885000Y1230000D2*
Y1220000D1*
X2025000Y1080000D1*
X3755000D1*
X3810170Y1135170D1*
Y1301670D1*
X1610000Y1810000D2*
X1645000D1*
X2654750Y2860127D2*
X2651000D1*
Y3000250D1*
X2735000Y3084250D1*
X2825623D1*
X2414750Y2000127D2*
Y2170000D1*
Y2189750D1*
X2455000Y2230000D1*
Y2549663D1*
X2458740Y2553403D1*
X2574750Y2000127D2*
Y2130250D1*
X2535000Y2170000D1*
X2414750D1*
X1820000Y2375000D2*
D18*
X1230000D1*
X1176127Y2428873D1*
X1158763D1*
Y2174873D2*
D17*
X1155000D1*
Y1995000D1*
X1195000Y1955000D1*
X1610000D1*
X1158763Y2428873D2*
Y2635077D1*
D16*
X1360373D1*
X1158763D2*
D17*
Y2640079D1*
X1150000D1*
Y2739123D1*
X1127000Y2762123D1*
X2762310Y3905430D2*
D16*
X2682927Y3984813D1*
X2095490D1*
X1952600Y3841923D1*
X1815000D1*
D19*
X1625000D1*
D16*
X1492177D1*
D13*
X1460000Y3874100D1*
Y3915000D1*
X3365000Y2780000D2*
D17*
X3455000D1*
X3475000Y2760000D1*
D13*
X3538000D1*
X3524000Y2746000D1*
X3349747Y2342080D2*
X3476747D1*
D17*
X3475000Y2760000D1*
X3603747Y1762080D2*
Y2021253D1*
X3476747Y2148253D1*
Y2342080D1*
X3195000Y1900000D2*
D13*
X3238373D1*
Y1641627D1*
X3292563Y1587437D1*
X3524390D1*
X3603747Y1666793D1*
Y1762080D1*
D48*
X3825000Y2135000D3*
X2349377Y3174877D3*
X3159227Y2555913D3*
X1730000Y2110000D3*
X2333740Y2293400D3*
X2254133Y2174770D3*
X3245000Y2670000D3*
X2248740Y2413403D3*
X2885000Y1990000D3*
X3280000Y1195000D3*
X1750000Y1595000D3*
X1135000Y3665000D3*
X2955000Y2820000D3*
X3970000Y1610000D3*
X3780000Y1915000D3*
X2713740Y2558403D3*
X3667000Y2524000D3*
X2412900Y2682820D3*
X2458740Y2553403D3*
X2952627Y2968500D3*
X1820000Y2375000D3*
X2762310Y3905430D3*
X1485000Y1250000D3*
X2587500Y3254250D3*
X2665000Y2200000D3*
X2230000Y1495000D3*
X3685000Y1210000D3*
X3050000Y1915000D3*
X2793877Y3778127D3*
X3880000Y2500000D3*
D22*
X1158763Y2174873D3*
D23*
X3880543Y2301873D3*
X1158763Y2428873D3*
D24*
X2757300Y3504100D3*
X1741300D3*
X2249300Y1694000D3*
D25*
X2565000Y1755000D3*
Y1585000D3*
X2492250Y3301877D3*
Y3131877D3*
X3075000Y3110000D3*
Y2940000D3*
X1127000Y2762123D3*
Y2932123D3*
D27*
X1610000Y1810000D3*
X1780000D3*
D28*
X1364903Y1174903D3*
X1174903D3*
D29*
X3810170Y1428670D3*
Y1301670D3*
X3683170Y1428670D3*
Y1301670D3*
X3556170Y1428670D3*
Y1301670D3*
D31*
X3794000Y2651000D3*
Y2841000D3*
X3524000Y2746000D3*
D25*
X1619140Y2650953D3*
Y2820953D3*
Y3206637D3*
Y3036637D3*
D27*
X1780000Y1955000D3*
X1610000D3*
D25*
X2190623Y3333623D3*
Y3163623D3*
X3195000Y2070000D3*
Y1900000D3*
D27*
X1344643Y1349287D3*
X1174643D3*
D25*
X2047750Y3333623D3*
Y3163623D3*
X1920750Y3333623D3*
Y3163623D3*
X3215000Y3010000D3*
Y2840000D3*
X3365000Y2950000D3*
Y2780000D3*
X2920877Y3694123D3*
Y3524123D3*
D27*
X1174643Y1492177D3*
X1344643D3*
X1174643Y1635067D3*
X1344643D3*
D35*
X2174750Y2000127D3*
X2254750D3*
X2334750D3*
X2414750D3*
X2494750D3*
X2574750D3*
X2654750D3*
X2734750D3*
D36*
X2884750Y2150127D3*
Y2230127D3*
Y2310127D3*
Y2390127D3*
Y2470127D3*
Y2550127D3*
Y2630127D3*
Y2710127D3*
D35*
X2734750Y2860127D3*
X2654750D3*
X2574750D3*
X2494750D3*
X2414750D3*
X2334750D3*
X2254750D3*
X2174750D3*
D36*
X2024750Y2710127D3*
Y2630127D3*
Y2550127D3*
Y2470127D3*
Y2390127D3*
Y2310127D3*
Y2230127D3*
Y2150127D3*
D38*
X1460373Y3079624D3*
X1360373Y3079627D3*
X1260373Y3079624D3*
Y2757874D3*
X1360373D3*
X1460373D3*
D39*
X1360373Y2918751D3*
D42*
X3349747Y1762080D3*
X3476747D3*
X3603747D3*
X3730747D3*
Y2342080D3*
X3603747D3*
X3476747D3*
X3349747D3*
D23*
X3720000Y3360000D3*
Y3720000D3*
X3360000D3*
D44*
X1595000Y1665000D3*
Y1570000D3*
Y1475000D3*
X1896753D3*
Y1570000D3*
Y1665000D3*
D45*
X1460000Y3915000D3*
X1140000D3*
Y3405000D3*
X1460000D3*
D94*
X2870000Y1660413D3*
X2705000Y1660357D3*
X2787500Y1660387D3*
D25*
X2825623Y3254250D3*
Y3084250D3*
D23*
X2405000Y1220000D3*
Y1670000D3*
X3045000D3*
Y1220000D3*
D46*
X2140000Y1230000D3*
X1885000D3*
X1630000D3*
D47*
X1158750Y3206627D3*
D46*
X3952750Y3063750D3*
M02*
