G04 DipTrace 3.0.0.1*
G04 Limbus-modelD-rev01.GBL*
%MOMM*%
G04 #@! TF.FileFunction,Copper,L2,Bot*
G04 #@! TF.Part,Single*
G04 #@! TA.AperFunction,Conductor*
%ADD13C,0.33*%
%ADD14C,0.7*%
%ADD15C,0.4*%
%ADD16C,0.6*%
%ADD17C,0.5*%
%ADD18C,0.8*%
G04 #@! TA.AperFunction,CopperBalancing*
%ADD20C,0.3*%
G04 #@! TA.AperFunction,ComponentPad*
%ADD22R,1.6X1.6*%
%ADD23C,1.7*%
%ADD24C,1.8*%
%ADD25R,1.0X1.1*%
%ADD26R,1.8X1.8*%
%ADD27R,1.1X1.0*%
%ADD29C,0.7874*%
%ADD33R,0.65X1.25*%
%ADD41R,2.0X0.6*%
G04 #@! TA.AperFunction,ComponentPad*
%ADD46C,1.5*%
%ADD47C,1.6*%
G04 #@! TA.AperFunction,ViaPad*
%ADD48C,1.016*%
%FSLAX35Y35*%
G04*
G71*
G90*
G75*
G01*
G04 Bottom*
%LPD*%
X2349377Y3174877D2*
D13*
Y3274377D1*
X2440000Y3365000D1*
X3301493D1*
X3656493Y3720000D1*
X3720000D1*
X3480000Y3095000D2*
Y3095720D1*
X3937183D1*
D14*
Y3063750D1*
X3952750D1*
X1730000Y2110000D2*
D13*
Y2095490D1*
X1523930D1*
X1523440Y2095000D1*
X1430000D1*
X2885000Y1990000D2*
X2835000D1*
X2685000Y1840000D1*
Y1510000D1*
X2615000Y1440000D1*
X2350000D1*
X2140000Y1230000D1*
X2230000Y1495000D2*
D15*
X2265000Y1530000D1*
X2560000D1*
X2605000Y1575000D1*
Y2155000D1*
X2650000Y2200000D1*
X2665000D1*
X1983000Y3775000D2*
D13*
Y3684510D1*
X2047860Y3619650D1*
Y2452140D1*
X2210000Y2290000D1*
X2320000D1*
X2333740Y2303740D1*
Y2293400D1*
X3480000Y2095000D2*
Y2105000D1*
X3385003D1*
X2931600Y2558403D1*
X2713740D1*
X3159227Y2555913D2*
Y2524160D1*
X3381500Y2301887D1*
X3473113D1*
X3480000Y2295000D1*
X3825000Y2135000D2*
X3829907Y2139907D1*
X3667923Y2301887D1*
X3486887D1*
X3480000Y2295000D1*
X3685000Y1210000D2*
X3667923D1*
Y2301887D1*
X3245000Y2670000D2*
X3406717Y2508283D1*
X3466717D1*
X3480000Y2495000D1*
X3880000Y2500000D2*
X3790000Y2410000D1*
X3606373D1*
X3521373Y2495000D1*
X3480000D1*
X3968937Y1730327D2*
Y1611063D1*
X3970000Y1610000D1*
X2955000Y2820000D2*
X3260303D1*
X3380303Y2700000D1*
X3480000D1*
Y2695000D1*
X3667000Y2524000D2*
Y2619700D1*
X3587897Y2698803D1*
X3483803D1*
X3480000Y2695000D1*
X2254133Y2174770D2*
X2206730D1*
X1968477Y2413023D1*
Y3540267D1*
X1856000Y3652743D1*
Y3775000D1*
X2110000Y3902000D2*
D16*
X2189977Y3981977D1*
D13*
X2224567Y4016567D1*
X3270363D1*
X3360000Y3926930D1*
Y3720000D1*
X1176300Y3651403D2*
Y3905430D1*
X3190750Y3635250D2*
Y3730500D1*
X3159000Y3762250D1*
X2968707D1*
Y3778127D1*
X2793877D1*
X3190750Y3635250D2*
X3206857D1*
Y3476760D1*
X3190980Y3492637D1*
X2110000Y3775000D2*
Y3763907D1*
X2158997Y3714910D1*
X2274910D1*
X2435000Y3875000D1*
X2430000D1*
Y3705000D2*
Y3700133D1*
X2127243Y3397377D1*
Y2555913D1*
X2248740Y2434417D1*
Y2413403D1*
X3050000Y1915000D2*
Y2000000D1*
X2716360Y2333640D1*
X2471360D1*
X2391597Y2413403D1*
X2248740D1*
X2430000Y3705000D2*
X2575000D1*
X1476300Y3905430D2*
D18*
Y3651403D1*
X2757300Y3504100D2*
D13*
X2719093D1*
X2685000Y3538193D1*
Y3795000D1*
X2605000Y3875000D1*
X2575000D1*
X2458740Y2553403D2*
D14*
X2304397D1*
X2222503Y2635297D1*
Y3302117D1*
X2424487Y3504100D1*
X2757300D1*
X3020980Y3492637D2*
D16*
X2768763D1*
D13*
X2757300Y3504100D1*
X3020980Y3492637D2*
D17*
Y3519747D1*
X3000750Y3539977D1*
Y3635250D1*
X1476300Y3651403D2*
D18*
Y3504100D1*
Y3326300D1*
D16*
X1445000Y3295000D1*
X1430000D1*
X1741300Y3504100D2*
D18*
X1476300D1*
X1158763Y2174873D2*
D17*
X1105000D1*
Y1090000D1*
X1820000D1*
X1885000Y1155000D1*
Y1230000D1*
X1741300Y3504100D2*
D18*
Y3468700D1*
X1865000Y3345000D1*
Y2420000D1*
X1820000Y2375000D1*
X3095750Y3905250D2*
D17*
X2762490D1*
X2762310Y3905430D1*
D48*
X3825000Y2135000D3*
X2349377Y3174877D3*
X3159227Y2555913D3*
X1730000Y2110000D3*
X2333740Y2293400D3*
X2254133Y2174770D3*
X3245000Y2670000D3*
X2248740Y2413403D3*
X2885000Y1990000D3*
X3280000Y1195000D3*
X1750000Y1595000D3*
X1135000Y3665000D3*
X2955000Y2820000D3*
X3970000Y1610000D3*
X3780000Y1915000D3*
X2713740Y2558403D3*
X3667000Y2524000D3*
X2412900Y2682820D3*
X2458740Y2553403D3*
X2952627Y2968500D3*
X1820000Y2375000D3*
X2762310Y3905430D3*
X1485000Y1250000D3*
X2587500Y3254250D3*
X2665000Y2200000D3*
X2230000Y1495000D3*
X3685000Y1210000D3*
X3050000Y1915000D3*
X2793877Y3778127D3*
X3880000Y2500000D3*
X1065660Y4003653D2*
D20*
X1327080D1*
X1817067D2*
X2716867D1*
X2807770D2*
X3004033D1*
X3187457D2*
X4030303D1*
X1065660Y3973987D2*
X1327080D1*
X2048863D2*
X2320773D1*
X3187457D2*
X4030303D1*
X1065660Y3944320D2*
X1327080D1*
X2167983D2*
X2225030D1*
X2248983D2*
X2320773D1*
X3187457D2*
X4030303D1*
X1065660Y3914653D2*
X1327080D1*
X3187457D2*
X4030303D1*
X1065660Y3884987D2*
X1327080D1*
X3187457D2*
X4030303D1*
X1065660Y3855320D2*
X1327080D1*
X3187457D2*
X3676690D1*
X3763317D2*
X4030303D1*
X1065660Y3825653D2*
X1327080D1*
X3197593D2*
X3623310D1*
X3816693D2*
X4030303D1*
X1065660Y3795987D2*
X1327080D1*
X3231050D2*
X3598000D1*
X3842007D2*
X4030303D1*
X1065660Y3766320D2*
X1327080D1*
X3257007D2*
X3583587D1*
X3856363D2*
X4030303D1*
X1065660Y3736653D2*
X1327080D1*
X3282437D2*
X3567353D1*
X3863217D2*
X4030303D1*
X1065660Y3706987D2*
X1327080D1*
X3282437D2*
X3537647D1*
X3863627D2*
X4030303D1*
X1065660Y3677320D2*
X1327080D1*
X3282437D2*
X3508000D1*
X3857593D2*
X4030303D1*
X1065660Y3647653D2*
X1327080D1*
X3282437D2*
X3478350D1*
X3844233D2*
X4030303D1*
X1065660Y3617987D2*
X1327080D1*
X3282553D2*
X3448643D1*
X3820620D2*
X4030303D1*
X1065660Y3588320D2*
X1327080D1*
X3305170D2*
X3418997D1*
X3630600D2*
X3666027D1*
X3773980D2*
X4030303D1*
X1065660Y3558653D2*
X1327080D1*
X3305170D2*
X3389347D1*
X3600953D2*
X4030303D1*
X1065660Y3528987D2*
X1327080D1*
X3305170D2*
X3359640D1*
X3571303D2*
X4030303D1*
X1065660Y3499320D2*
X1377120D1*
X3305170D2*
X3329990D1*
X3541657D2*
X3694033D1*
X3745973D2*
X4030303D1*
X1065660Y3469653D2*
X1377120D1*
X3511950D2*
X3628057D1*
X3811950D2*
X4030303D1*
X1065660Y3439987D2*
X1377120D1*
X3482300D2*
X3600637D1*
X3839370D2*
X4030303D1*
X1065660Y3410320D2*
X1377120D1*
X3452650D2*
X3585050D1*
X3854957D2*
X4030303D1*
X1065660Y3380653D2*
X1270773D1*
X1589193D2*
X1659953D1*
X3422943D2*
X3577317D1*
X3862690D2*
X4030303D1*
X1065660Y3350987D2*
X1270773D1*
X1589193D2*
X1719953D1*
X3393297D2*
X3576087D1*
X3863920D2*
X4030303D1*
X1065660Y3321320D2*
X1270773D1*
X1589193D2*
X1749660D1*
X3363647D2*
X3581183D1*
X3858823D2*
X4030303D1*
X1065660Y3291653D2*
X1270773D1*
X1589193D2*
X1765773D1*
X2472497D2*
X3593430D1*
X3846577D2*
X4030303D1*
X1065660Y3261987D2*
X1270773D1*
X1589193D2*
X1765773D1*
X2442787D2*
X3615343D1*
X3824663D2*
X4030303D1*
X1065660Y3232320D2*
X1270773D1*
X1589193D2*
X1765773D1*
X2442670D2*
X3656710D1*
X3783297D2*
X4030303D1*
X1065660Y3202653D2*
X1765773D1*
X2455737D2*
X4030303D1*
X1065660Y3172987D2*
X1270773D1*
X1589193D2*
X1765773D1*
X2459370D2*
X3320793D1*
X3639213D2*
X3877080D1*
X1065660Y3143320D2*
X1270773D1*
X1589193D2*
X1765773D1*
X2454623D2*
X3320793D1*
X1065660Y3113653D2*
X1270773D1*
X1589193D2*
X1765773D1*
X2440150D2*
X3320793D1*
X1065660Y3083987D2*
X1270773D1*
X1589193D2*
X1765773D1*
X2408863D2*
X3320793D1*
X1065660Y3054320D2*
X1270773D1*
X1589193D2*
X1765773D1*
X2316693D2*
X3320793D1*
X1065660Y3024653D2*
X1270773D1*
X1589193D2*
X1765773D1*
X2316693D2*
X3320793D1*
X1065660Y2994987D2*
X1765773D1*
X2316693D2*
X3838000D1*
X1065660Y2965320D2*
X1270773D1*
X1589193D2*
X1765773D1*
X2316693D2*
X3863020D1*
X1065660Y2935653D2*
X1270773D1*
X1589193D2*
X1765773D1*
X2316693D2*
X3921377D1*
X3984097D2*
X4030303D1*
X1065660Y2905987D2*
X1270773D1*
X1589193D2*
X1765773D1*
X2316693D2*
X2888310D1*
X3021693D2*
X4030303D1*
X1065660Y2876320D2*
X1270773D1*
X1589193D2*
X1765773D1*
X2316693D2*
X2861007D1*
X3309273D2*
X4030303D1*
X1065660Y2846653D2*
X1270773D1*
X1589193D2*
X1765773D1*
X2316693D2*
X2848350D1*
X3339450D2*
X4030303D1*
X1065660Y2816987D2*
X1270773D1*
X1589193D2*
X1765773D1*
X2316693D2*
X2845070D1*
X3369157D2*
X4030303D1*
X1065660Y2787320D2*
X1765773D1*
X2316693D2*
X2850110D1*
X3398803D2*
X4030303D1*
X1065660Y2757653D2*
X1270773D1*
X1589193D2*
X1765773D1*
X2316693D2*
X2865050D1*
X3639213D2*
X4030303D1*
X1065660Y2727987D2*
X1270773D1*
X1589193D2*
X1765773D1*
X2316693D2*
X2897393D1*
X3012613D2*
X3152100D1*
X3664527D2*
X4030303D1*
X1065660Y2698320D2*
X1270773D1*
X1589193D2*
X1765773D1*
X2316693D2*
X3138800D1*
X3694173D2*
X4030303D1*
X1065660Y2668653D2*
X1270773D1*
X1589193D2*
X1765773D1*
X2321147D2*
X3134990D1*
X3723763D2*
X4030303D1*
X1065660Y2638987D2*
X1270773D1*
X1589193D2*
X1765773D1*
X2525990D2*
X2640343D1*
X2787143D2*
X3088760D1*
X3740113D2*
X4030303D1*
X1065660Y2609320D2*
X1270773D1*
X1589193D2*
X1765773D1*
X2552943D2*
X2616613D1*
X2986480D2*
X3063507D1*
X3742690D2*
X4030303D1*
X1065660Y2579653D2*
X1270773D1*
X1589193D2*
X1765773D1*
X2565483D2*
X2605890D1*
X3016187D2*
X3051907D1*
X3761383D2*
X3805537D1*
X3954450D2*
X4030303D1*
X1065660Y2549987D2*
X1083133D1*
X1234350D2*
X1270773D1*
X1589193D2*
X1765773D1*
X2568707D2*
X2604073D1*
X3977593D2*
X4030303D1*
X1589193Y2520320D2*
X1765773D1*
X2563490D2*
X2610753D1*
X3988080D2*
X4030303D1*
X1589193Y2490653D2*
X1765773D1*
X2548433D2*
X2627920D1*
X3989603D2*
X4030303D1*
X1589193Y2460987D2*
X1753293D1*
X2515680D2*
X2666477D1*
X2761010D2*
X2923173D1*
X3982633D2*
X4030303D1*
X1589193Y2431320D2*
X1726047D1*
X2479467D2*
X2952883D1*
X3965053D2*
X4030303D1*
X1300327Y2401653D2*
X1713390D1*
X2745013D2*
X2982530D1*
X3925150D2*
X4030303D1*
X1589193Y2371987D2*
X1710050D1*
X2783803D2*
X3012180D1*
X3857827D2*
X4030303D1*
X1589193Y2342320D2*
X1715090D1*
X2813510D2*
X3041887D1*
X3819567D2*
X4030303D1*
X1589193Y2312653D2*
X1730030D1*
X1909937D2*
X1963057D1*
X2843160D2*
X3071533D1*
X3762963D2*
X4030303D1*
X1589193Y2282987D2*
X1762373D1*
X1877593D2*
X1992707D1*
X2872807D2*
X3101183D1*
X3792613D2*
X4030303D1*
X1589193Y2253320D2*
X2022353D1*
X2435933D2*
X2569210D1*
X2902513D2*
X3130890D1*
X3822320D2*
X4030303D1*
X1589193Y2223653D2*
X2052060D1*
X2417887D2*
X2557667D1*
X2932163D2*
X3160537D1*
X3887887D2*
X4030303D1*
X1297983Y2193987D2*
X1660713D1*
X1799310D2*
X2081710D1*
X2376283D2*
X2536513D1*
X2961810D2*
X3190187D1*
X3917300D2*
X4030303D1*
X1825210Y2164320D2*
X2111360D1*
X2363627D2*
X2526377D1*
X2991520D2*
X3219893D1*
X3930893D2*
X4030303D1*
X1837103Y2134653D2*
X2141007D1*
X2356303D2*
X2525793D1*
X3021167D2*
X3249543D1*
X3934997D2*
X4030303D1*
X1839860Y2104987D2*
X2170010D1*
X2338257D2*
X2525793D1*
X3050817D2*
X3279190D1*
X3930717D2*
X4030303D1*
X1834233Y2075320D2*
X2211670D1*
X2296597D2*
X2525793D1*
X3080523D2*
X3308897D1*
X3916830D2*
X4030303D1*
X1818473Y2045653D2*
X2525793D1*
X3109587D2*
X3320793D1*
X3743627D2*
X3763117D1*
X3886890D2*
X4030303D1*
X1189173Y2015987D2*
X1270773D1*
X1589193D2*
X1675890D1*
X1784077D2*
X2525793D1*
X3123940D2*
X3320793D1*
X3743627D2*
X4030303D1*
X1189173Y1986320D2*
X2525793D1*
X3132787D2*
X3592200D1*
X3743627D2*
X4030303D1*
X1189173Y1956653D2*
X1270773D1*
X1589193D2*
X2525793D1*
X3151537D2*
X3320793D1*
X3743627D2*
X4030303D1*
X1189173Y1926987D2*
X1270773D1*
X1589193D2*
X2525793D1*
X3159330D2*
X3320793D1*
X3743627D2*
X4030303D1*
X1189173Y1897320D2*
X1270773D1*
X1589193D2*
X2525793D1*
X3158510D2*
X3320793D1*
X3743627D2*
X4030303D1*
X1189173Y1867653D2*
X1270773D1*
X1589193D2*
X2525793D1*
X2818490D2*
X2951067D1*
X3148960D2*
X3320793D1*
X3743627D2*
X4030303D1*
X1189173Y1837987D2*
X1270773D1*
X1589193D2*
X2525793D1*
X2788783D2*
X2972747D1*
X3127280D2*
X3320793D1*
X3743627D2*
X4030303D1*
X1189173Y1808320D2*
X2525793D1*
X2760717D2*
X3038723D1*
X3061247D2*
X3592200D1*
X3743627D2*
X3854757D1*
X1189173Y1778653D2*
X2525793D1*
X2760717D2*
X3592200D1*
X3743627D2*
X3854757D1*
X1189173Y1748987D2*
X2525793D1*
X2760717D2*
X3592200D1*
X3743627D2*
X3854757D1*
X1189173Y1719320D2*
X2525793D1*
X2760717D2*
X3592200D1*
X3743627D2*
X3854757D1*
X1189173Y1689653D2*
X2525793D1*
X2760717D2*
X3592200D1*
X3743627D2*
X3854757D1*
X1189173Y1659987D2*
X2525793D1*
X2760717D2*
X3592200D1*
X3743627D2*
X3854757D1*
X1189173Y1630320D2*
X2525793D1*
X2760717D2*
X3592200D1*
X3743627D2*
X3854757D1*
X1189173Y1600653D2*
X2210090D1*
X2760717D2*
X3592200D1*
X3743627D2*
X3860383D1*
X1189173Y1570987D2*
X2151670D1*
X2760717D2*
X3405753D1*
X3452593D2*
X3592200D1*
X3743627D2*
X3867353D1*
X1189173Y1541320D2*
X2130520D1*
X2760717D2*
X3350557D1*
X3507787D2*
X3592200D1*
X3743627D2*
X3884933D1*
X1189173Y1511653D2*
X2121320D1*
X2760717D2*
X3329933D1*
X3528413D2*
X3592200D1*
X3743627D2*
X3924837D1*
X4015150D2*
X4030303D1*
X1189173Y1481987D2*
X2120793D1*
X2755093D2*
X3321087D1*
X3537260D2*
X3592200D1*
X3743627D2*
X4030303D1*
X1189173Y1452320D2*
X2128877D1*
X2733120D2*
X3320967D1*
X3537377D2*
X3592200D1*
X3743627D2*
X3873507D1*
X4000853D2*
X4030303D1*
X1189173Y1422653D2*
X2148157D1*
X2703473D2*
X3329580D1*
X3528763D2*
X3592200D1*
X3743627D2*
X3844853D1*
X1189173Y1392987D2*
X2194737D1*
X2673823D2*
X3349797D1*
X3508550D2*
X3592200D1*
X3743627D2*
X3831670D1*
X1189173Y1363320D2*
X2167490D1*
X2379157D2*
X3389700D1*
X3468590D2*
X3592200D1*
X3743627D2*
X3827980D1*
X1189173Y1333653D2*
X1801573D1*
X1968413D2*
X2056573D1*
X2491773D2*
X2958213D1*
X3131793D2*
X3346397D1*
X3511950D2*
X3592200D1*
X3743627D2*
X3832727D1*
X1189173Y1303987D2*
X1773623D1*
X1996363D2*
X2028623D1*
X2521480D2*
X2928507D1*
X3161500D2*
X3327940D1*
X3530407D2*
X3592200D1*
X3743627D2*
X3847373D1*
X1189173Y1274320D2*
X1758507D1*
X2538353D2*
X2911690D1*
X3178317D2*
X3320500D1*
X3537847D2*
X3592200D1*
X3773510D2*
X3879190D1*
X3995170D2*
X4030303D1*
X1189173Y1244653D2*
X1751593D1*
X2547027D2*
X2902960D1*
X3187047D2*
X3321670D1*
X3536673D2*
X3580773D1*
X3789213D2*
X4030303D1*
X1189173Y1214987D2*
X1751650D1*
X2549137D2*
X2900910D1*
X3189097D2*
X3331750D1*
X3526597D2*
X3575090D1*
X3794897D2*
X4030303D1*
X1189173Y1185320D2*
X1758623D1*
X2544860D2*
X2905127D1*
X3184877D2*
X3354367D1*
X3503980D2*
X3577900D1*
X3792143D2*
X4030303D1*
X2533667Y1155653D2*
X2916320D1*
X3173687D2*
X3589853D1*
X3780190D2*
X4030303D1*
X2513337Y1125987D2*
X2936650D1*
X3153353D2*
X3615753D1*
X3754233D2*
X4030303D1*
X1294967Y2208827D2*
Y2181170D1*
X1586200Y2181200D1*
Y2168133D1*
X1640240Y2168190D1*
X1648637Y2179490D1*
X1660510Y2191363D1*
X1674093Y2201233D1*
X1689053Y2208857D1*
X1705020Y2214043D1*
X1721603Y2216670D1*
X1738397D1*
X1754980Y2214043D1*
X1770947Y2208857D1*
X1785907Y2201233D1*
X1799490Y2191363D1*
X1811363Y2179490D1*
X1821233Y2165907D1*
X1828857Y2150947D1*
X1834043Y2134980D1*
X1836670Y2118397D1*
Y2101603D1*
X1834043Y2085020D1*
X1828857Y2069053D1*
X1821233Y2054093D1*
X1811363Y2040510D1*
X1799490Y2028637D1*
X1785907Y2018767D1*
X1770947Y2011143D1*
X1754980Y2005957D1*
X1738397Y2003330D1*
X1721603D1*
X1705020Y2005957D1*
X1689053Y2011143D1*
X1674093Y2018767D1*
X1668063Y2022797D1*
X1586153Y2022790D1*
X1586200Y2008800D1*
X1273800D1*
Y2038623D1*
X1186157Y2038673D1*
X1186200Y1171220D1*
X1767753Y1171200D1*
X1763787Y1179793D1*
X1760220Y1189457D1*
X1757427Y1199373D1*
X1755417Y1209477D1*
X1754203Y1219707D1*
X1753800Y1230000D1*
X1754203Y1240293D1*
X1755417Y1250523D1*
X1757427Y1260627D1*
X1760220Y1270543D1*
X1763787Y1280207D1*
X1768100Y1289563D1*
X1773133Y1298553D1*
X1778857Y1307117D1*
X1785233Y1315207D1*
X1792227Y1322773D1*
X1799793Y1329767D1*
X1807883Y1336143D1*
X1816447Y1341867D1*
X1825437Y1346900D1*
X1834793Y1351213D1*
X1844457Y1354780D1*
X1854373Y1357573D1*
X1864477Y1359583D1*
X1874707Y1360797D1*
X1885000Y1361200D1*
X1895293Y1360797D1*
X1905523Y1359583D1*
X1915627Y1357573D1*
X1925543Y1354780D1*
X1935207Y1351213D1*
X1944563Y1346900D1*
X1953553Y1341867D1*
X1962117Y1336143D1*
X1970207Y1329767D1*
X1977773Y1322773D1*
X1984767Y1315207D1*
X1991143Y1307117D1*
X1996867Y1298553D1*
X2001900Y1289563D1*
X2006213Y1280207D1*
X2009780Y1270543D1*
X2012500Y1260900D1*
X2015220Y1270543D1*
X2018787Y1280207D1*
X2023100Y1289563D1*
X2028133Y1298553D1*
X2033857Y1307117D1*
X2040233Y1315207D1*
X2047227Y1322773D1*
X2054793Y1329767D1*
X2062883Y1336143D1*
X2071447Y1341867D1*
X2080437Y1346900D1*
X2089793Y1351213D1*
X2099457Y1354780D1*
X2109373Y1357573D1*
X2119477Y1359583D1*
X2129707Y1360797D1*
X2140000Y1361200D1*
X2150293Y1360797D1*
X2165773Y1358540D1*
X2199590Y1392403D1*
X2189053Y1396143D1*
X2174093Y1403767D1*
X2160510Y1413637D1*
X2148637Y1425510D1*
X2138767Y1439093D1*
X2131143Y1454053D1*
X2125957Y1470020D1*
X2123330Y1486603D1*
Y1503397D1*
X2125957Y1519980D1*
X2131143Y1535947D1*
X2138767Y1550907D1*
X2148637Y1564490D1*
X2160510Y1576363D1*
X2174093Y1586233D1*
X2189053Y1593857D1*
X2205020Y1599043D1*
X2221603Y1601670D1*
X2238397D1*
X2247210Y1604093D1*
X2259020Y1605967D1*
X2310000Y1606200D1*
X2528380D1*
X2528800Y1650000D1*
X2529033Y2160980D1*
X2530907Y2172790D1*
X2534600Y2184160D1*
X2540030Y2194813D1*
X2547057Y2204487D1*
X2559363Y2217127D1*
X2563237Y2233063D1*
X2569663Y2248577D1*
X2577140Y2260957D1*
X2465657Y2261163D1*
X2454390Y2262950D1*
X2443540Y2266473D1*
X2438337Y2268873D1*
X2437783Y2268420D1*
X2432597Y2252453D1*
X2424973Y2237493D1*
X2415103Y2223910D1*
X2403230Y2212037D1*
X2389647Y2202167D1*
X2374687Y2194543D1*
X2360077Y2189740D1*
X2361133Y2174770D1*
X2359817Y2158030D1*
X2355897Y2141707D1*
X2349470Y2126193D1*
X2340697Y2111877D1*
X2329793Y2099110D1*
X2317027Y2088207D1*
X2302710Y2079433D1*
X2287197Y2073007D1*
X2270873Y2069087D1*
X2254133Y2067770D1*
X2237393Y2069087D1*
X2221070Y2073007D1*
X2205557Y2079433D1*
X2191240Y2088207D1*
X2178473Y2099110D1*
X2167570Y2111877D1*
X2165617Y2114797D1*
X2155323Y2123363D1*
X1929890Y2348793D1*
X1921133Y2340087D1*
X1915337Y2326423D1*
X1906563Y2312107D1*
X1895660Y2299340D1*
X1882893Y2288437D1*
X1868577Y2279663D1*
X1853063Y2273237D1*
X1836740Y2269317D1*
X1820000Y2268000D1*
X1803260Y2269317D1*
X1786937Y2273237D1*
X1771423Y2279663D1*
X1757107Y2288437D1*
X1744340Y2299340D1*
X1733437Y2312107D1*
X1724663Y2326423D1*
X1718237Y2341937D1*
X1714317Y2358260D1*
X1713000Y2375000D1*
X1714317Y2391740D1*
X1718237Y2408063D1*
X1724663Y2423577D1*
X1733437Y2437893D1*
X1744340Y2450660D1*
X1757107Y2461563D1*
X1768817Y2468880D1*
X1768800Y3305177D1*
X1713327Y3360627D1*
X1696123Y3365057D1*
X1685353Y3369030D1*
X1674927Y3373833D1*
X1664910Y3379443D1*
X1655367Y3385823D1*
X1646350Y3392930D1*
X1637920Y3400720D1*
X1631253Y3407933D1*
X1572490Y3407900D1*
X1572500Y3381230D1*
X1586200Y3381200D1*
Y3208800D1*
X1273800D1*
Y3381200D1*
X1380147D1*
X1380100Y3504130D1*
X1367500Y3505203D1*
X1330100D1*
Y4033273D1*
X1062677Y4033320D1*
X1062630Y2532323D1*
X1075770Y2543107D1*
X1084990Y2549267D1*
X1094663Y2554683D1*
X1104733Y2559327D1*
X1115133Y2563163D1*
X1125803Y2566173D1*
X1136677Y2568333D1*
X1147687Y2569637D1*
X1158767Y2570073D1*
X1169847Y2569637D1*
X1180857Y2568333D1*
X1191730Y2566173D1*
X1202400Y2563163D1*
X1212800Y2559327D1*
X1222870Y2554683D1*
X1232543Y2549267D1*
X1241763Y2543107D1*
X1250470Y2536243D1*
X1258610Y2528717D1*
X1266137Y2520577D1*
X1273793Y2510680D1*
X1273800Y2581200D1*
X1586200D1*
Y2408800D1*
X1298563D1*
X1296067Y2395910D1*
X1291573Y2381217D1*
X1586200Y2381200D1*
Y2208800D1*
X1294930D1*
X2338800Y3986200D2*
X2681200D1*
Y3975243D1*
X2692820Y3986793D1*
X2706403Y3996663D1*
X2721363Y4004287D1*
X2737330Y4009473D1*
X2753913Y4012100D1*
X2770707D1*
X2787290Y4009473D1*
X2803257Y4004287D1*
X2818217Y3996663D1*
X2831800Y3986793D1*
X2837490Y3986450D1*
X3007003D1*
X3007050Y4023950D1*
X3184450D1*
Y3830297D1*
X3192007Y3827027D1*
X3201733Y3821067D1*
X3210407Y3813657D1*
X3246033Y3777717D1*
X3252737Y3768487D1*
X3257923Y3758300D1*
X3267050Y3753950D1*
X3279450D1*
X3279557Y3598863D1*
X3302180Y3598837D1*
Y3468467D1*
X3581583Y3747903D1*
X3585710Y3763633D1*
X3589547Y3774033D1*
X3594190Y3784103D1*
X3599607Y3793777D1*
X3605767Y3802997D1*
X3612630Y3811703D1*
X3620157Y3819843D1*
X3628297Y3827370D1*
X3637003Y3834233D1*
X3646223Y3840393D1*
X3655897Y3845810D1*
X3665967Y3850453D1*
X3676367Y3854290D1*
X3687037Y3857300D1*
X3697910Y3859460D1*
X3708920Y3860763D1*
X3720000Y3861200D1*
X3731080Y3860763D1*
X3742090Y3859460D1*
X3752963Y3857300D1*
X3763633Y3854290D1*
X3774033Y3850453D1*
X3784103Y3845810D1*
X3793777Y3840393D1*
X3802997Y3834233D1*
X3811703Y3827370D1*
X3819843Y3819843D1*
X3827370Y3811703D1*
X3834233Y3802997D1*
X3840393Y3793777D1*
X3845810Y3784103D1*
X3850453Y3774033D1*
X3854290Y3763633D1*
X3857300Y3752963D1*
X3859460Y3742090D1*
X3860763Y3731080D1*
X3861200Y3720000D1*
X3860763Y3708920D1*
X3859460Y3697910D1*
X3857300Y3687037D1*
X3854290Y3676367D1*
X3850453Y3665967D1*
X3845810Y3655897D1*
X3840393Y3646223D1*
X3834233Y3637003D1*
X3827370Y3628297D1*
X3819843Y3620157D1*
X3811703Y3612630D1*
X3802997Y3605767D1*
X3793777Y3599607D1*
X3784103Y3594190D1*
X3774033Y3589547D1*
X3763633Y3585710D1*
X3752963Y3582700D1*
X3742090Y3580540D1*
X3731080Y3579237D1*
X3720000Y3578800D1*
X3708920Y3579237D1*
X3697910Y3580540D1*
X3687037Y3582700D1*
X3676367Y3585710D1*
X3665967Y3589547D1*
X3655897Y3594190D1*
X3641867Y3602520D1*
X3348710Y3309717D1*
X3339480Y3303013D1*
X3329313Y3297833D1*
X3318463Y3294310D1*
X3307197Y3292523D1*
X3256493Y3292300D1*
X2470107D1*
X2426650Y3248833D1*
X2435940Y3237770D1*
X2444713Y3223453D1*
X2451140Y3207940D1*
X2455060Y3191617D1*
X2456377Y3174877D1*
X2455060Y3158137D1*
X2451140Y3141813D1*
X2444713Y3126300D1*
X2435940Y3111983D1*
X2425037Y3099217D1*
X2412270Y3088313D1*
X2397953Y3079540D1*
X2382440Y3073113D1*
X2366117Y3069193D1*
X2349377Y3067877D1*
X2332637Y3069193D1*
X2316313Y3073113D1*
X2313693Y3074080D1*
X2313703Y2673113D1*
X2342137Y2644640D1*
X2402833Y2644637D1*
X2417793Y2652260D1*
X2433760Y2657447D1*
X2450343Y2660073D1*
X2467137D1*
X2483720Y2657447D1*
X2499687Y2652260D1*
X2514647Y2644637D1*
X2528230Y2634767D1*
X2540103Y2622893D1*
X2549973Y2609310D1*
X2557597Y2594350D1*
X2562783Y2578383D1*
X2565410Y2561800D1*
Y2545007D1*
X2562783Y2528423D1*
X2557597Y2512457D1*
X2549973Y2497497D1*
X2540103Y2483913D1*
X2528230Y2472040D1*
X2514647Y2462170D1*
X2499687Y2454547D1*
X2483720Y2449360D1*
X2467137Y2446733D1*
X2461330Y2446507D1*
X2501463Y2406350D1*
X2722063Y2406117D1*
X2733330Y2404330D1*
X2744180Y2400807D1*
X2754347Y2395627D1*
X2763577Y2388923D1*
X2799587Y2353227D1*
X3105283Y2047217D1*
X3111987Y2037987D1*
X3117167Y2027820D1*
X3120690Y2016970D1*
X3122477Y2005703D1*
X3122700Y1993497D1*
X3131363Y1984490D1*
X3141233Y1970907D1*
X3148857Y1955947D1*
X3154043Y1939980D1*
X3156670Y1923397D1*
Y1906603D1*
X3154043Y1890020D1*
X3148857Y1874053D1*
X3141233Y1859093D1*
X3131363Y1845510D1*
X3119490Y1833637D1*
X3105907Y1823767D1*
X3090947Y1816143D1*
X3074980Y1810957D1*
X3058397Y1808330D1*
X3041603D1*
X3025020Y1810957D1*
X3009053Y1816143D1*
X2994093Y1823767D1*
X2980510Y1833637D1*
X2968637Y1845510D1*
X2958767Y1859093D1*
X2951143Y1874053D1*
X2945957Y1890020D1*
X2944020Y1900770D1*
X2933577Y1894663D1*
X2918063Y1888237D1*
X2901740Y1884317D1*
X2885000Y1883000D1*
X2868260Y1884317D1*
X2851937Y1888237D1*
X2840567Y1892753D1*
X2757677Y1809863D1*
X2757477Y1504297D1*
X2755690Y1493030D1*
X2752167Y1482180D1*
X2746987Y1472013D1*
X2740280Y1462787D1*
X2704587Y1426773D1*
X2662213Y1384720D1*
X2652987Y1378013D1*
X2642820Y1372833D1*
X2631970Y1369310D1*
X2620703Y1367523D1*
X2570000Y1367300D1*
X2380097D1*
X2382910Y1359460D1*
X2393920Y1360763D1*
X2405000Y1361200D1*
X2416080Y1360763D1*
X2427090Y1359460D1*
X2437963Y1357300D1*
X2448633Y1354290D1*
X2459033Y1350453D1*
X2469103Y1345810D1*
X2478777Y1340393D1*
X2487997Y1334233D1*
X2496703Y1327370D1*
X2504843Y1319843D1*
X2512370Y1311703D1*
X2519233Y1302997D1*
X2525393Y1293777D1*
X2530810Y1284103D1*
X2535453Y1274033D1*
X2539290Y1263633D1*
X2542300Y1252963D1*
X2544460Y1242090D1*
X2545763Y1231080D1*
X2546200Y1220000D1*
X2545763Y1208920D1*
X2544460Y1197910D1*
X2542300Y1187037D1*
X2539290Y1176367D1*
X2535453Y1165967D1*
X2530810Y1155897D1*
X2525393Y1146223D1*
X2519233Y1137003D1*
X2512370Y1128297D1*
X2504843Y1120157D1*
X2493677Y1110243D1*
X2956203Y1110260D1*
X2945157Y1120157D1*
X2937630Y1128297D1*
X2930767Y1137003D1*
X2924607Y1146223D1*
X2919190Y1155897D1*
X2914547Y1165967D1*
X2910710Y1176367D1*
X2907700Y1187037D1*
X2905540Y1197910D1*
X2904237Y1208920D1*
X2903800Y1220000D1*
X2904237Y1231080D1*
X2905540Y1242090D1*
X2907700Y1252963D1*
X2910710Y1263633D1*
X2914547Y1274033D1*
X2919190Y1284103D1*
X2924607Y1293777D1*
X2930767Y1302997D1*
X2937630Y1311703D1*
X2945157Y1319843D1*
X2953297Y1327370D1*
X2962003Y1334233D1*
X2971223Y1340393D1*
X2980897Y1345810D1*
X2990967Y1350453D1*
X3001367Y1354290D1*
X3012037Y1357300D1*
X3022910Y1359460D1*
X3033920Y1360763D1*
X3045000Y1361200D1*
X3056080Y1360763D1*
X3067090Y1359460D1*
X3077963Y1357300D1*
X3088633Y1354290D1*
X3099033Y1350453D1*
X3109103Y1345810D1*
X3118777Y1340393D1*
X3127997Y1334233D1*
X3136703Y1327370D1*
X3144843Y1319843D1*
X3152370Y1311703D1*
X3159233Y1302997D1*
X3165393Y1293777D1*
X3170810Y1284103D1*
X3175453Y1274033D1*
X3179290Y1263633D1*
X3182300Y1252963D1*
X3184460Y1242090D1*
X3185763Y1231080D1*
X3186200Y1220000D1*
X3185763Y1208920D1*
X3184460Y1197910D1*
X3182300Y1187037D1*
X3179290Y1176367D1*
X3175453Y1165967D1*
X3170810Y1155897D1*
X3165393Y1146223D1*
X3159233Y1137003D1*
X3152370Y1128297D1*
X3144843Y1120157D1*
X3133677Y1110243D1*
X3646203Y1110260D1*
X3636423Y1114663D1*
X3622107Y1123437D1*
X3609340Y1134340D1*
X3598437Y1147107D1*
X3589663Y1161423D1*
X3583237Y1176937D1*
X3579317Y1193260D1*
X3578000Y1210000D1*
X3579317Y1226740D1*
X3583237Y1243063D1*
X3589663Y1258577D1*
X3595207Y1268063D1*
X3595223Y1808770D1*
X3323800Y1808800D1*
Y1981200D1*
X3595267D1*
X3595223Y2008810D1*
X3323800Y2008800D1*
Y2063350D1*
X2901503Y2485687D1*
X2792207Y2485703D1*
X2783230Y2477040D1*
X2769647Y2467170D1*
X2754687Y2459547D1*
X2738720Y2454360D1*
X2722137Y2451733D1*
X2705343D1*
X2688760Y2454360D1*
X2672793Y2459547D1*
X2657833Y2467170D1*
X2644250Y2477040D1*
X2632377Y2488913D1*
X2622507Y2502497D1*
X2614883Y2517457D1*
X2609697Y2533423D1*
X2607070Y2550007D1*
Y2566800D1*
X2609697Y2583383D1*
X2614883Y2599350D1*
X2622507Y2614310D1*
X2632377Y2627893D1*
X2644250Y2639767D1*
X2657833Y2649637D1*
X2672793Y2657260D1*
X2688760Y2662447D1*
X2705343Y2665073D1*
X2722137D1*
X2738720Y2662447D1*
X2754687Y2657260D1*
X2769647Y2649637D1*
X2783230Y2639767D1*
X2792140Y2631100D1*
X2937303Y2630880D1*
X2948570Y2629093D1*
X2959420Y2625570D1*
X2969587Y2620390D1*
X2978813Y2613683D1*
X3014827Y2577990D1*
X3053567Y2539250D1*
X3052227Y2555913D1*
X3053543Y2572653D1*
X3057463Y2588977D1*
X3063890Y2604490D1*
X3072663Y2618807D1*
X3083567Y2631573D1*
X3096333Y2642477D1*
X3110650Y2651250D1*
X3126163Y2657677D1*
X3138400Y2660783D1*
X3138000Y2670000D1*
X3139317Y2686740D1*
X3143237Y2703063D1*
X3149663Y2718577D1*
X3158437Y2732893D1*
X3169340Y2745660D1*
X3171100Y2747287D1*
X3033487Y2747300D1*
X3024490Y2738637D1*
X3010907Y2728767D1*
X2995947Y2721143D1*
X2979980Y2715957D1*
X2963397Y2713330D1*
X2946603D1*
X2930020Y2715957D1*
X2914053Y2721143D1*
X2899093Y2728767D1*
X2885510Y2738637D1*
X2873637Y2750510D1*
X2863767Y2764093D1*
X2856143Y2779053D1*
X2850957Y2795020D1*
X2848330Y2811603D1*
Y2828397D1*
X2850957Y2844980D1*
X2856143Y2860947D1*
X2863767Y2875907D1*
X2873637Y2889490D1*
X2885510Y2901363D1*
X2899093Y2911233D1*
X2914053Y2918857D1*
X2930020Y2924043D1*
X2946603Y2926670D1*
X2963397D1*
X2979980Y2924043D1*
X2995947Y2918857D1*
X3010907Y2911233D1*
X3024490Y2901363D1*
X3033400Y2892697D1*
X3266007Y2892477D1*
X3277273Y2890690D1*
X3288123Y2887167D1*
X3298290Y2881987D1*
X3307517Y2875280D1*
X3343530Y2839587D1*
X3401907Y2781210D1*
X3636200Y2781200D1*
Y2753133D1*
X3718407Y2671107D1*
X3725817Y2662433D1*
X3731777Y2652707D1*
X3736143Y2642167D1*
X3738807Y2631073D1*
X3739700Y2619700D1*
Y2602533D1*
X3748363Y2593490D1*
X3758233Y2579907D1*
X3765857Y2564947D1*
X3771043Y2548980D1*
X3773670Y2532397D1*
Y2515603D1*
X3771043Y2499020D1*
X3769020Y2491850D1*
X3773107Y2495920D1*
X3773330Y2508397D1*
X3775957Y2524980D1*
X3781143Y2540947D1*
X3788767Y2555907D1*
X3798637Y2569490D1*
X3810510Y2581363D1*
X3824093Y2591233D1*
X3839053Y2598857D1*
X3855020Y2604043D1*
X3871603Y2606670D1*
X3888397D1*
X3904980Y2604043D1*
X3920947Y2598857D1*
X3935907Y2591233D1*
X3949490Y2581363D1*
X3961363Y2569490D1*
X3971233Y2555907D1*
X3978857Y2540947D1*
X3984043Y2524980D1*
X3986670Y2508397D1*
Y2491603D1*
X3984043Y2475020D1*
X3978857Y2459053D1*
X3971233Y2444093D1*
X3961363Y2430510D1*
X3949490Y2418637D1*
X3935907Y2408767D1*
X3920947Y2401143D1*
X3904980Y2395957D1*
X3888397Y2393330D1*
X3875967Y2393160D1*
X3837217Y2354717D1*
X3827987Y2348013D1*
X3817820Y2342833D1*
X3806970Y2339310D1*
X3795703Y2337523D1*
X3735333Y2337300D1*
X3830740Y2241883D1*
X3841740Y2240683D1*
X3858063Y2236763D1*
X3873577Y2230337D1*
X3887893Y2221563D1*
X3900660Y2210660D1*
X3911563Y2197893D1*
X3920337Y2183577D1*
X3926763Y2168063D1*
X3930683Y2151740D1*
X3932000Y2135000D1*
X3930683Y2118260D1*
X3926763Y2101937D1*
X3920337Y2086423D1*
X3911563Y2072107D1*
X3900660Y2059340D1*
X3887893Y2048437D1*
X3873577Y2039663D1*
X3858063Y2033237D1*
X3841740Y2029317D1*
X3825000Y2028000D1*
X3808260Y2029317D1*
X3791937Y2033237D1*
X3776423Y2039663D1*
X3762107Y2048437D1*
X3749340Y2059340D1*
X3740610Y2069350D1*
X3740907Y1301233D1*
X3754490Y1291363D1*
X3766363Y1279490D1*
X3776233Y1265907D1*
X3783857Y1250947D1*
X3789043Y1234980D1*
X3791670Y1218397D1*
Y1201603D1*
X3789043Y1185020D1*
X3783857Y1169053D1*
X3776233Y1154093D1*
X3766363Y1140510D1*
X3754490Y1128637D1*
X3740907Y1118767D1*
X3725947Y1111143D1*
X3723577Y1110270D1*
X4033273Y1110260D1*
X4033320Y1320083D1*
X4027720Y1309680D1*
X4017927Y1296200D1*
X4006140Y1284413D1*
X3992660Y1274620D1*
X3977810Y1267053D1*
X3961963Y1261903D1*
X3945503Y1259297D1*
X3928837D1*
X3912377Y1261903D1*
X3896530Y1267053D1*
X3881680Y1274620D1*
X3868200Y1284413D1*
X3856413Y1296200D1*
X3846620Y1309680D1*
X3839053Y1324530D1*
X3833903Y1340377D1*
X3831297Y1356837D1*
Y1373503D1*
X3833903Y1389963D1*
X3839053Y1405810D1*
X3846620Y1420660D1*
X3856413Y1434140D1*
X3868200Y1445927D1*
X3881680Y1455720D1*
X3896530Y1463287D1*
X3912377Y1468437D1*
X3928837Y1471043D1*
X3945503D1*
X3961963Y1468437D1*
X3977810Y1463287D1*
X3992660Y1455720D1*
X4006140Y1445927D1*
X4017927Y1434140D1*
X4027720Y1420660D1*
X4033310Y1410100D1*
X4033320Y1523757D1*
X4025907Y1518767D1*
X4010947Y1511143D1*
X3994980Y1505957D1*
X3978397Y1503330D1*
X3961603D1*
X3945020Y1505957D1*
X3929053Y1511143D1*
X3914093Y1518767D1*
X3900510Y1528637D1*
X3888637Y1540510D1*
X3878767Y1554093D1*
X3871143Y1569053D1*
X3865957Y1585020D1*
X3863330Y1601603D1*
Y1618397D1*
X3864003Y1624100D1*
X3857737Y1624127D1*
Y1836527D1*
X4033343D1*
X4033320Y2960240D1*
X4021303Y2951883D1*
X4012313Y2946850D1*
X4002957Y2942537D1*
X3993293Y2938970D1*
X3983377Y2936177D1*
X3973273Y2934167D1*
X3963043Y2932953D1*
X3952750Y2932550D1*
X3942457Y2932953D1*
X3932227Y2934167D1*
X3922123Y2936177D1*
X3912207Y2938970D1*
X3902543Y2942537D1*
X3893187Y2946850D1*
X3884197Y2951883D1*
X3875633Y2957607D1*
X3867543Y2963983D1*
X3859977Y2970977D1*
X3852983Y2978543D1*
X3846607Y2986633D1*
X3840883Y2995197D1*
X3835850Y3004187D1*
X3831537Y3013543D1*
X3828040Y3023017D1*
X3636187Y3023020D1*
X3636200Y3008800D1*
X3323800D1*
Y3181200D1*
X3636200D1*
Y3168367D1*
X3873690Y3168420D1*
X3884197Y3175617D1*
X3893187Y3180650D1*
X3902543Y3184963D1*
X3912207Y3188530D1*
X3922123Y3191323D1*
X3932227Y3193333D1*
X3942457Y3194547D1*
X3952750Y3194950D1*
X3963043Y3194547D1*
X3973273Y3193333D1*
X3983377Y3191323D1*
X3993293Y3188530D1*
X4002957Y3184963D1*
X4012313Y3180650D1*
X4021303Y3175617D1*
X4033313Y3167177D1*
X4033320Y4033327D1*
X1779863Y4033320D1*
X1791423Y4026017D1*
X1804093Y4015193D1*
X1814917Y4002523D1*
X1821953Y3991297D1*
X1833690Y3994930D1*
X1848500Y3997277D1*
X1863500D1*
X1878310Y3994930D1*
X1892573Y3990297D1*
X1905937Y3983487D1*
X1918067Y3974673D1*
X1919467Y3973380D1*
X1926827Y3979317D1*
X1939613Y3987153D1*
X1953467Y3992893D1*
X1968050Y3996393D1*
X1983000Y3997570D1*
X1997950Y3996393D1*
X2012533Y3992893D1*
X2026387Y3987153D1*
X2039173Y3979317D1*
X2050577Y3969577D1*
X2060317Y3958173D1*
X2061117Y3956980D1*
X2164993Y3957000D1*
Y3916510D1*
X2174577Y3924417D1*
X2188787Y3933123D1*
X2204183Y3939503D1*
X2220387Y3943393D1*
X2237000Y3944700D1*
X2253613Y3943393D1*
X2269817Y3939503D1*
X2285213Y3933123D1*
X2299423Y3924417D1*
X2312093Y3913593D1*
X2322917Y3900923D1*
X2323803Y3899597D1*
X2323800Y3986200D1*
X2338800D1*
X3535043Y1255237D2*
X3532437Y1238777D1*
X3527287Y1222930D1*
X3519720Y1208080D1*
X3509927Y1194600D1*
X3498140Y1182813D1*
X3484660Y1173020D1*
X3469810Y1165453D1*
X3453963Y1160303D1*
X3437503Y1157697D1*
X3420837D1*
X3404377Y1160303D1*
X3388530Y1165453D1*
X3373680Y1173020D1*
X3360200Y1182813D1*
X3348413Y1194600D1*
X3338620Y1208080D1*
X3331053Y1222930D1*
X3325903Y1238777D1*
X3323297Y1255237D1*
Y1271903D1*
X3325903Y1288363D1*
X3331053Y1304210D1*
X3338620Y1319060D1*
X3348413Y1332540D1*
X3360200Y1344327D1*
X3373680Y1354120D1*
X3388530Y1361687D1*
X3398327Y1365130D1*
X3388530Y1368653D1*
X3373680Y1376220D1*
X3360200Y1386013D1*
X3348413Y1397800D1*
X3338620Y1411280D1*
X3331053Y1426130D1*
X3325903Y1441977D1*
X3323297Y1458437D1*
Y1475103D1*
X3325903Y1491563D1*
X3331053Y1507410D1*
X3338620Y1522260D1*
X3348413Y1535740D1*
X3360200Y1547527D1*
X3373680Y1557320D1*
X3388530Y1564887D1*
X3404377Y1570037D1*
X3420837Y1572643D1*
X3437503D1*
X3453963Y1570037D1*
X3469810Y1564887D1*
X3484660Y1557320D1*
X3498140Y1547527D1*
X3509927Y1535740D1*
X3519720Y1522260D1*
X3527287Y1507410D1*
X3532437Y1491563D1*
X3535043Y1475103D1*
Y1458437D1*
X3532437Y1441977D1*
X3527287Y1426130D1*
X3519720Y1411280D1*
X3509927Y1397800D1*
X3498140Y1386013D1*
X3484660Y1376220D1*
X3469810Y1368653D1*
X3460013Y1365210D1*
X3469810Y1361687D1*
X3484660Y1354120D1*
X3498140Y1344327D1*
X3509927Y1332540D1*
X3519720Y1319060D1*
X3527287Y1304210D1*
X3532437Y1288363D1*
X3535043Y1271903D1*
Y1255237D1*
X1288800Y1981200D2*
X1586200D1*
Y1808800D1*
X1273800D1*
Y1981200D1*
X1288800D1*
Y2781200D2*
X1586200D1*
Y2608800D1*
X1273800D1*
Y2781200D1*
X1288800D1*
Y2981200D2*
X1586200D1*
Y2808800D1*
X1273800D1*
Y2981200D1*
X1288800D1*
Y3181200D2*
X1586200D1*
Y3008800D1*
X1273800D1*
Y3181200D1*
X1288800D1*
X3860763Y3348920D2*
X3859460Y3337910D1*
X3857300Y3327037D1*
X3854290Y3316367D1*
X3850453Y3305967D1*
X3845810Y3295897D1*
X3840393Y3286223D1*
X3834233Y3277003D1*
X3827370Y3268297D1*
X3819843Y3260157D1*
X3811703Y3252630D1*
X3802997Y3245767D1*
X3793777Y3239607D1*
X3784103Y3234190D1*
X3774033Y3229547D1*
X3763633Y3225710D1*
X3752963Y3222700D1*
X3742090Y3220540D1*
X3731080Y3219237D1*
X3720000Y3218800D1*
X3708920Y3219237D1*
X3697910Y3220540D1*
X3687037Y3222700D1*
X3676367Y3225710D1*
X3665967Y3229547D1*
X3655897Y3234190D1*
X3646223Y3239607D1*
X3637003Y3245767D1*
X3628297Y3252630D1*
X3620157Y3260157D1*
X3612630Y3268297D1*
X3605767Y3277003D1*
X3599607Y3286223D1*
X3594190Y3295897D1*
X3589547Y3305967D1*
X3585710Y3316367D1*
X3582700Y3327037D1*
X3580540Y3337910D1*
X3579237Y3348920D1*
X3578800Y3360000D1*
X3579237Y3371080D1*
X3580540Y3382090D1*
X3582700Y3392963D1*
X3585710Y3403633D1*
X3589547Y3414033D1*
X3594190Y3424103D1*
X3599607Y3433777D1*
X3605767Y3442997D1*
X3612630Y3451703D1*
X3620157Y3459843D1*
X3628297Y3467370D1*
X3637003Y3474233D1*
X3646223Y3480393D1*
X3655897Y3485810D1*
X3665967Y3490453D1*
X3676367Y3494290D1*
X3687037Y3497300D1*
X3697910Y3499460D1*
X3708920Y3500763D1*
X3720000Y3501200D1*
X3731080Y3500763D1*
X3742090Y3499460D1*
X3752963Y3497300D1*
X3763633Y3494290D1*
X3774033Y3490453D1*
X3784103Y3485810D1*
X3793777Y3480393D1*
X3802997Y3474233D1*
X3811703Y3467370D1*
X3819843Y3459843D1*
X3827370Y3451703D1*
X3834233Y3442997D1*
X3840393Y3433777D1*
X3845810Y3424103D1*
X3850453Y3414033D1*
X3854290Y3403633D1*
X3857300Y3392963D1*
X3859460Y3382090D1*
X3860763Y3371080D1*
X3861200Y3360000D1*
X3860763Y3348920D1*
D22*
X1158763Y2174873D3*
D23*
X3880543Y2301873D3*
X1158763Y2428873D3*
D24*
X2757300Y3504100D3*
X1741300D3*
X2249300Y1694000D3*
D25*
X2430000Y3705000D3*
Y3875000D3*
D26*
X1476300Y3651403D3*
X1176300D3*
X1476300Y3905430D3*
X1176300D3*
D29*
X2110000Y3775000D3*
Y3902000D3*
X1983000Y3775000D3*
Y3902000D3*
X1856000Y3775000D3*
Y3902000D3*
D33*
X3190750Y3635250D3*
X3000750D3*
X3095750Y3905250D3*
D25*
X2575000Y3875000D3*
Y3705000D3*
D27*
X3190980Y3492637D3*
X3020980D3*
X3798937Y1730327D3*
X3968937D3*
D41*
X1430000Y1895000D3*
Y2095000D3*
Y2295000D3*
Y2495000D3*
Y2695000D3*
Y2895000D3*
Y3095000D3*
Y3295000D3*
X3480000D3*
Y3095000D3*
Y2895000D3*
Y2695000D3*
Y2495000D3*
Y2295000D3*
Y2095000D3*
Y1895000D3*
D23*
X3720000Y3360000D3*
Y3720000D3*
X3360000D3*
X2405000Y1220000D3*
Y1670000D3*
X3045000D3*
Y1220000D3*
D46*
X2140000Y1230000D3*
X1885000D3*
X1630000D3*
D47*
X1158750Y3206627D3*
D46*
X3952750Y3063750D3*
M02*
