G04 DipTrace 3.0.0.1*
G04 Limbus-modelD-rev01.GBO*
%MOMM*%
G04 #@! TF.FileFunction,Legend,Bot*
G04 #@! TF.Part,Single*
%ADD10C,0.25*%
%ADD32O,0.39127X0.39184*%
%ADD40O,1.27008X1.26965*%
%ADD91C,0.19608*%
%ADD92C,0.15686*%
%ADD93C,0.11765*%
%FSLAX35Y35*%
G04*
G71*
G90*
G75*
G01*
G04 BotSilk*
%LPD*%
X2418889Y1670000D2*
D10*
X3031111D1*
X2418889Y1220000D2*
X3031111D1*
X1337292Y3571483D2*
Y3731323D1*
X1356204Y3571483D2*
Y3731323D1*
Y3571483D2*
X1296396D1*
X1356204Y3731323D2*
X1296396D1*
X1337292Y3825510D2*
Y3985350D1*
X1356204Y3825510D2*
Y3985350D1*
Y3825510D2*
X1296396D1*
X1356204Y3985350D2*
X1296396D1*
X2348130Y4029000D2*
X1617863D1*
Y3648000D1*
X2348130D1*
Y4029000D1*
D32*
X3269106Y3617899D3*
X3245736Y3745247D2*
D10*
X2945750D1*
Y3795253D1*
X3245736D1*
Y3745247D1*
X1455111Y1801217D2*
Y1833130D1*
X3455033Y3388801D2*
Y3357059D1*
X1455111Y3390002D2*
X3455033D1*
X1455111Y1800016D2*
X3455033D1*
X1455111Y3357059D2*
Y3388801D1*
X3455033Y1801217D2*
Y1833130D1*
D40*
X1375504Y1737734D3*
X2931388Y1222730D2*
D10*
X2518612D1*
X2931388Y1667270D2*
X2518612D1*
X2725000Y1222730D2*
Y1381512D1*
X2804380Y1460872D1*
X2725000Y1492616D2*
Y1667270D1*
X2262758Y3611667D2*
D91*
X2341795D1*
Y3484057D1*
Y3550880D2*
X2293222D1*
X2181006Y3611667D2*
Y3484057D1*
X2223543Y3611667D2*
X2138470D1*
X2099254D2*
Y3484057D1*
X2056717D1*
X2038467Y3490234D1*
X2026254Y3502307D1*
X2020217Y3514520D1*
X2014181Y3532630D1*
Y3563094D1*
X2020217Y3581344D1*
X2026254Y3593417D1*
X2038467Y3605630D1*
X2056717Y3611667D1*
X2099254D1*
X1974965D2*
Y3484057D1*
X1691635Y1678110D2*
D92*
Y1576022D1*
X1633347D1*
X1601975Y1678110D2*
X1597145Y1673281D1*
X1592204Y1678110D1*
X1597145Y1683051D1*
X1601975Y1678110D1*
X1597145Y1644081D2*
Y1576022D1*
X1560831Y1644081D2*
Y1576022D1*
Y1624651D2*
X1546231Y1639251D1*
X1536461Y1644081D1*
X1521973D1*
X1512202Y1639251D1*
X1507373Y1624651D1*
Y1576022D1*
Y1624651D2*
X1492773Y1639251D1*
X1483002Y1644081D1*
X1468514D1*
X1458744Y1639251D1*
X1453802Y1624651D1*
Y1576022D1*
X1422430Y1678110D2*
Y1576022D1*
Y1629481D2*
X1412659Y1639251D1*
X1403000Y1644081D1*
X1388400D1*
X1378742Y1639251D1*
X1368971Y1629481D1*
X1364142Y1614881D1*
Y1605222D1*
X1368971Y1590622D1*
X1378742Y1580964D1*
X1388400Y1576022D1*
X1403000D1*
X1412659Y1580964D1*
X1422430Y1590622D1*
X1332769Y1644081D2*
Y1595451D1*
X1327940Y1580964D1*
X1318169Y1576022D1*
X1303569D1*
X1293911Y1580964D1*
X1279311Y1595451D1*
Y1644081D2*
Y1576022D1*
X1194480Y1629481D2*
X1199309Y1639251D1*
X1213909Y1644081D1*
X1228509D1*
X1243109Y1639251D1*
X1247938Y1629481D1*
X1243109Y1619822D1*
X1233338Y1614881D1*
X1209080Y1610051D1*
X1199309Y1605222D1*
X1194480Y1595451D1*
Y1590622D1*
X1199309Y1580964D1*
X1213909Y1576022D1*
X1228509D1*
X1243109Y1580964D1*
X1247938Y1590622D1*
X2106291Y1493690D2*
D93*
Y1442646D1*
Y1479118D2*
X2095341Y1490068D1*
X2088013Y1493690D1*
X2077147D1*
X2069819Y1490068D1*
X2066197Y1479118D1*
Y1442646D1*
Y1479118D2*
X2055247Y1490068D1*
X2047919Y1493690D1*
X2037053D1*
X2029725Y1490068D1*
X2026019Y1479118D1*
Y1442646D1*
X1984296Y1493690D2*
X1991540Y1490068D1*
X1998868Y1482740D1*
X2002490Y1471790D1*
Y1464546D1*
X1998868Y1453596D1*
X1991540Y1446352D1*
X1984296Y1442646D1*
X1973346D1*
X1966018Y1446352D1*
X1958774Y1453596D1*
X1955068Y1464546D1*
Y1471790D1*
X1958774Y1482740D1*
X1966018Y1490068D1*
X1973346Y1493690D1*
X1984296D1*
X1887822Y1519212D2*
Y1442646D1*
Y1482740D2*
X1895066Y1490068D1*
X1902394Y1493690D1*
X1913344D1*
X1920588Y1490068D1*
X1927916Y1482740D1*
X1931538Y1471790D1*
Y1464546D1*
X1927916Y1453596D1*
X1920588Y1446352D1*
X1913344Y1442646D1*
X1902394D1*
X1895066Y1446352D1*
X1887822Y1453596D1*
X1864293Y1471790D2*
X1820577D1*
Y1479118D1*
X1824199Y1486446D1*
X1827821Y1490068D1*
X1835149Y1493690D1*
X1846099D1*
X1853343Y1490068D1*
X1860671Y1482740D1*
X1864293Y1471790D1*
Y1464546D1*
X1860671Y1453596D1*
X1853343Y1446352D1*
X1846099Y1442646D1*
X1835149D1*
X1827821Y1446352D1*
X1820577Y1453596D1*
X1797048Y1519212D2*
Y1442646D1*
X1699451Y1519212D2*
Y1442646D1*
X1673929D1*
X1662979Y1446352D1*
X1655651Y1453596D1*
X1652029Y1460924D1*
X1648407Y1471790D1*
Y1490068D1*
X1652029Y1501018D1*
X1655651Y1508262D1*
X1662979Y1515590D1*
X1673929Y1519212D1*
X1699451D1*
X1550809Y1493690D2*
Y1442646D1*
Y1471790D2*
X1547103Y1482740D1*
X1539859Y1490068D1*
X1532531Y1493690D1*
X1521581D1*
X1498052Y1471790D2*
X1454336D1*
Y1479118D1*
X1457958Y1486446D1*
X1461580Y1490068D1*
X1468908Y1493690D1*
X1479858D1*
X1487102Y1490068D1*
X1494430Y1482740D1*
X1498052Y1471790D1*
Y1464546D1*
X1494430Y1453596D1*
X1487102Y1446352D1*
X1479858Y1442646D1*
X1468908D1*
X1461580Y1446352D1*
X1454336Y1453596D1*
X1430807Y1493690D2*
X1408907Y1442646D1*
X1387091Y1493690D1*
X1267594Y1519127D2*
X1278544Y1515505D1*
X1285872Y1504555D1*
X1289494Y1486362D1*
Y1475412D1*
X1285872Y1457218D1*
X1278544Y1446268D1*
X1267594Y1442646D1*
X1260350D1*
X1249400Y1446268D1*
X1242156Y1457218D1*
X1238450Y1475412D1*
Y1486362D1*
X1242156Y1504555D1*
X1249400Y1515505D1*
X1260350Y1519127D1*
X1267594D1*
X1242156Y1504555D2*
X1285872Y1457218D1*
X1214920Y1504555D2*
X1207592Y1508262D1*
X1196642Y1519127D1*
Y1442646D1*
X1424955Y1255140D2*
Y1258762D1*
X1421333Y1266090D1*
X1417711Y1269712D1*
X1410383Y1273334D1*
X1395811D1*
X1388567Y1269712D1*
X1384945Y1266090D1*
X1381239Y1258762D1*
Y1251518D1*
X1384945Y1244190D1*
X1392189Y1233324D1*
X1428661Y1196853D1*
X1377617D1*
X1332187Y1273334D2*
X1343137Y1269712D1*
X1350466Y1258762D1*
X1354087Y1240568D1*
Y1229618D1*
X1350466Y1211424D1*
X1343137Y1200474D1*
X1332187Y1196853D1*
X1324944D1*
X1313994Y1200474D1*
X1306750Y1211424D1*
X1303044Y1229618D1*
Y1240568D1*
X1306750Y1258762D1*
X1313994Y1269712D1*
X1324944Y1273334D1*
X1332187D1*
X1306750Y1258762D2*
X1350466Y1211424D1*
X1279514Y1258762D2*
X1272186Y1262468D1*
X1261236Y1273334D1*
Y1196853D1*
X1193991Y1262468D2*
X1197613Y1269712D1*
X1208563Y1273334D1*
X1215807D1*
X1226757Y1269712D1*
X1234085Y1258762D1*
X1237707Y1240568D1*
Y1222374D1*
X1234085Y1207803D1*
X1226757Y1200474D1*
X1215807Y1196853D1*
X1212185D1*
X1201319Y1200474D1*
X1193991Y1207803D1*
X1190369Y1218753D1*
Y1222374D1*
X1193991Y1233324D1*
X1201319Y1240568D1*
X1212185Y1244190D1*
X1215807D1*
X1226757Y1240568D1*
X1234085Y1233324D1*
X1237707Y1222374D1*
X2200701Y1423381D2*
X2208029Y1416137D1*
X2215273Y1405187D1*
X2222601Y1390615D1*
X2226223Y1372337D1*
Y1357765D1*
X2222601Y1339571D1*
X2215273Y1324999D1*
X2208029Y1314049D1*
X2200701Y1306806D1*
X2133372Y1366946D2*
X2140700Y1374274D1*
X2148028Y1377896D1*
X2158893D1*
X2166222Y1374274D1*
X2173465Y1366946D1*
X2177172Y1355996D1*
Y1348753D1*
X2173465Y1337803D1*
X2166222Y1330559D1*
X2158893Y1326853D1*
X2148028D1*
X2140700Y1330559D1*
X2133372Y1337803D1*
X2109842Y1423381D2*
X2102514Y1416137D1*
X2095270Y1405187D1*
X2087942Y1390615D1*
X2084320Y1372337D1*
Y1357765D1*
X2087942Y1339571D1*
X2095270Y1324999D1*
X2102514Y1314049D1*
X2109842Y1306806D1*
X1986723Y1403418D2*
X1968445Y1326853D1*
X1950251Y1403418D1*
X1932057Y1326853D1*
X1913779Y1403418D1*
X1890250Y1355996D2*
X1846534D1*
Y1363324D1*
X1850156Y1370653D1*
X1853778Y1374274D1*
X1861106Y1377896D1*
X1872056D1*
X1879300Y1374274D1*
X1886628Y1366946D1*
X1890250Y1355996D1*
Y1348753D1*
X1886628Y1337803D1*
X1879300Y1330559D1*
X1872056Y1326853D1*
X1861106D1*
X1853778Y1330559D1*
X1846534Y1337803D1*
X1812054Y1403418D2*
Y1341424D1*
X1808433Y1330559D1*
X1801104Y1326853D1*
X1793861D1*
X1823004Y1377896D2*
X1797483D1*
X1770331D2*
X1755759Y1326853D1*
X1741187Y1377896D1*
X1726615Y1326853D1*
X1712044Y1377896D1*
X1644798D2*
Y1326853D1*
Y1366946D2*
X1652042Y1374274D1*
X1659370Y1377896D1*
X1670236D1*
X1677564Y1374274D1*
X1684808Y1366946D1*
X1688514Y1355996D1*
Y1348753D1*
X1684808Y1337803D1*
X1677564Y1330559D1*
X1670236Y1326853D1*
X1659370D1*
X1652042Y1330559D1*
X1644798Y1337803D1*
X1621269Y1377896D2*
Y1326853D1*
Y1355996D2*
X1617563Y1366946D1*
X1610319Y1374274D1*
X1602991Y1377896D1*
X1592041D1*
X1568511Y1355996D2*
X1524796D1*
Y1363324D1*
X1528418Y1370653D1*
X1532040Y1374274D1*
X1539368Y1377896D1*
X1550318D1*
X1557561Y1374274D1*
X1564890Y1366946D1*
X1568511Y1355996D1*
Y1348753D1*
X1564890Y1337803D1*
X1557561Y1330559D1*
X1550318Y1326853D1*
X1539368D1*
X1532040Y1330559D1*
X1524796Y1337803D1*
X1427198Y1403418D2*
Y1326853D1*
X1383483D1*
X1316237Y1377896D2*
Y1326853D1*
Y1366946D2*
X1323481Y1374274D1*
X1330809Y1377896D1*
X1341675D1*
X1349003Y1374274D1*
X1356247Y1366946D1*
X1359953Y1355996D1*
Y1348753D1*
X1356247Y1337803D1*
X1349003Y1330559D1*
X1341675Y1326853D1*
X1330809D1*
X1323481Y1330559D1*
X1316237Y1337803D1*
X1292708Y1403418D2*
Y1326853D1*
Y1366946D2*
X1285380Y1374274D1*
X1278136Y1377896D1*
X1267186D1*
X1259942Y1374274D1*
X1252614Y1366946D1*
X1248992Y1355996D1*
Y1348753D1*
X1252614Y1337803D1*
X1259942Y1330559D1*
X1267186Y1326853D1*
X1278136D1*
X1285380Y1330559D1*
X1292708Y1337803D1*
X1185369Y1366946D2*
X1188991Y1374274D1*
X1199941Y1377896D1*
X1210891D1*
X1221841Y1374274D1*
X1225463Y1366946D1*
X1221841Y1359703D1*
X1214513Y1355996D1*
X1196319Y1352374D1*
X1188991Y1348753D1*
X1185369Y1341424D1*
Y1337803D1*
X1188991Y1330559D1*
X1199941Y1326853D1*
X1210891D1*
X1221841Y1330559D1*
X1225463Y1337803D1*
X2174588Y1140147D2*
D92*
Y1038059D1*
X2133753D1*
X2116233Y1043000D1*
X2104508Y1052659D1*
X2098713Y1062430D1*
X2092918Y1076917D1*
Y1101288D1*
X2098713Y1115888D1*
X2104508Y1125547D1*
X2116233Y1135317D1*
X2133753Y1140147D1*
X2174588D1*
X1884337Y1132790D2*
Y1045303D1*
X1936762Y1088990D2*
X1831777D1*
X1675621Y1089047D2*
X1608236D1*
M02*
