M48
METRIC,0000.00
T01C0.486
T02C0.7
T03C0.9
T04C1.0
%
T01
X+002349Y+003175
X+002588Y+003254
X+002953Y+002969
X+002955Y+002820
X+003245Y+002670
X+003159Y+002556
X+002714Y+002558
X+002459Y+002553
X+002413Y+002683
X+002249Y+002413
X+002334Y+002293
X+002254Y+002175
X+002665Y+002200
X+002885Y+001990
X+003050Y+001915
X+003780Y+001915
X+003825Y+002135
X+003880Y+002500
X+003667Y+002524
X+003970Y+001610
X+003685Y+001210
X+003280Y+001195
X+002230Y+001495
X+001750Y+001595
X+001485Y+001250
X+001730Y+002110
X+001820Y+002375
X+001135Y+003665
X+002762Y+003905
X+002794Y+003778
T02
X+003720Y+003360
X+003720Y+003720
X+003360Y+003720
T03
X+002140Y+001230
X+001885Y+001230
X+001630Y+001230
X+001159Y+003207
X+003953Y+003064
T04
X+001159Y+002175
X+001159Y+002429
X+001741Y+003504
X+001729Y+003737
X+001729Y+003940
X+002237Y+003838
X+002757Y+003504
X+003881Y+002302
X+003937Y+001365
X+003429Y+001264
X+003429Y+001467
X+003045Y+001670
X+003045Y+001220
X+002405Y+001220
X+002405Y+001670
X+002249Y+001694
T00
M30
