G04 DipTrace 3.0.0.1*
G04 Limbus-modelD-rev02.GTS*
%MOMM*%
G04 #@! TF.FileFunction,Soldermask,Top*
G04 #@! TF.Part,Single*
%AMOUTLINE1*
4,1,4,
-0.25033,0.94991,
0.24967,0.95009,
0.25033,-0.94991,
-0.24967,-0.95009,
-0.25033,0.94991,
0*%
%ADD30C,1.6*%
%ADD41R,2.0X0.6*%
%ADD48C,1.0*%
%ADD54R,1.1X1.8*%
%ADD56R,1.4X0.7*%
%ADD58R,0.7X2.3*%
%ADD62R,2.6X1.7*%
%ADD64R,0.6X1.1*%
%ADD67R,0.6X2.0*%
%ADD70R,1.35X0.75*%
%ADD72C,1.7*%
%ADD75C,0.8874*%
%ADD77R,1.4X1.6*%
%ADD79R,1.2X1.1*%
%ADD82R,1.1X1.2*%
%ADD84C,2.3*%
%ADD86C,1.8*%
%ADD88R,1.7X1.7*%
%ADD94OUTLINE1*%
%FSLAX35Y35*%
G04*
G71*
G90*
G75*
G01*
G04 TopMask*
%LPD*%
D88*
X1158763Y2174873D3*
D86*
X3880543Y2301873D3*
X1158763Y2428873D3*
D84*
X2757300Y3504100D3*
X1741300D3*
X2249300Y1694000D3*
D82*
X2565000Y1755000D3*
Y1585000D3*
X2435000Y3285000D3*
Y3115000D3*
X1127000Y2762123D3*
Y2932123D3*
D79*
X1585000Y1855000D3*
X1755000D3*
X2915000Y3145000D3*
X2745000D3*
D77*
X1355000Y1155000D3*
X1165000D3*
D75*
X3810170Y1428670D3*
Y1301670D3*
X3683170Y1428670D3*
Y1301670D3*
X3556170Y1428670D3*
Y1301670D3*
D48*
X3937170Y1365170D3*
X3429170Y1263570D3*
Y1466770D3*
X2237000Y3838500D3*
X1729000Y3940100D3*
Y3736900D3*
D30*
X2060000Y1265000D3*
X1550000D3*
X1805000D3*
X2315000D3*
D72*
X1158750Y3206627D3*
D30*
X3952750Y3063750D3*
D70*
X3610000Y2710000D3*
Y2900000D3*
X3340000Y2805000D3*
D82*
X1619140Y2650953D3*
Y2820953D3*
Y3206637D3*
Y3036637D3*
D79*
X1755000Y1995000D3*
X1585000D3*
D82*
X2260000Y3285000D3*
Y3115000D3*
X3195000Y2080000D3*
Y1910000D3*
D79*
X1325000Y1440000D3*
X1155000D3*
D82*
X1930000Y3215000D3*
Y3045000D3*
X3830000Y2720000D3*
Y2890000D3*
D79*
X1150000Y1575000D3*
X1320000D3*
X1150000Y1715000D3*
X1320000D3*
D67*
X2174750Y2000127D3*
X2254750D3*
X2334750D3*
X2414750D3*
X2494750D3*
X2574750D3*
X2654750D3*
X2734750D3*
D41*
X2884750Y2150127D3*
Y2230127D3*
Y2310127D3*
Y2390127D3*
Y2470127D3*
Y2550127D3*
Y2630127D3*
Y2710127D3*
D67*
X2734750Y2860127D3*
X2654750D3*
X2574750D3*
X2494750D3*
X2414750D3*
X2334750D3*
X2254750D3*
X2174750D3*
D41*
X2024750Y2710127D3*
Y2630127D3*
Y2550127D3*
Y2470127D3*
Y2390127D3*
Y2310127D3*
Y2230127D3*
Y2150127D3*
D64*
X1460373Y3079624D3*
X1360373Y3079627D3*
X1260373Y3079624D3*
Y2757874D3*
X1360373D3*
X1460373D3*
D62*
X1360373Y2918751D3*
D58*
X3349747Y1762080D3*
X3476747D3*
X3603747D3*
X3730747D3*
Y2342080D3*
X3603747D3*
X3476747D3*
X3349747D3*
D86*
X3725000Y3365000D3*
Y3725000D3*
X3365000D3*
D56*
X1550000Y1715000D3*
Y1620000D3*
Y1525000D3*
X1851753D3*
Y1620000D3*
Y1715000D3*
D54*
X1460000Y3915000D3*
X1140000D3*
Y3405000D3*
X1460000D3*
D94*
X2870000Y1660414D3*
X2705000Y1660357D3*
X2787500Y1660386D3*
M02*
