G04 DipTrace 3.0.0.1*
G04 Limbus-modelD-rev02.GTL*
%MOMM*%
G04 #@! TF.FileFunction,Copper,L1,Top*
G04 #@! TF.Part,Single*
%AMOUTLINE0*
4,1,4,
-0.20031,0.89993,
0.19969,0.90007,
0.20031,-0.89993,
-0.19969,-0.90007,
-0.20031,0.89993,
0*%
G04 #@! TA.AperFunction,Conductor*
%ADD13C,0.33*%
%ADD14C,0.5*%
%ADD15C,0.7*%
%ADD16C,0.4*%
%ADD17C,0.6*%
%ADD18C,0.8*%
G04 #@! TA.AperFunction,ComponentPad*
%ADD21R,1.6X1.6*%
%ADD22C,1.7*%
%ADD23C,2.2*%
%ADD24R,1.0X1.1*%
%ADD26R,1.1X1.0*%
%ADD27R,1.3X1.5*%
%ADD28C,0.7874*%
G04 #@! TA.AperFunction,ComponentPad*
%ADD29C,1.5*%
%ADD30C,1.6*%
%ADD32R,1.25X0.65*%
%ADD35R,0.5X1.9*%
%ADD36R,1.9X0.5*%
%ADD38R,0.5X1.0*%
%ADD39R,2.5X1.6*%
%ADD42R,0.6X2.2*%
%ADD44R,1.3X0.6*%
%ADD45R,1.0X1.7*%
G04 #@! TA.AperFunction,ViaPad*
%ADD46C,1.016*%
%ADD93OUTLINE0*%
%FSLAX35Y35*%
G04*
G71*
G90*
G75*
G01*
G04 Top*
%LPD*%
X2254750Y2860127D2*
D13*
Y3109750D1*
X2260000Y3115000D1*
X2174750Y2860127D2*
D14*
X2164873D1*
X2075000Y2950000D1*
Y3630000D1*
X1865000Y3840000D1*
X1804940D1*
D13*
X1648590D1*
D14*
X1535000D1*
X1460000Y3915000D1*
X2024750Y2710127D2*
D13*
Y2742500D1*
X1945000Y2822250D1*
Y3045000D1*
X1930000D1*
X2024750Y2550127D2*
X1894623D1*
X1841373Y2603377D1*
Y2888627D1*
X1693363Y3036637D1*
X1619140D1*
X1460373Y3079624D2*
X1619140D1*
Y3036637D1*
Y2820953D2*
Y2809720D1*
X1587387D1*
X1539757Y2762090D1*
X1460373D1*
Y2757874D1*
X1619140Y2820953D2*
X1699047D1*
X1746123Y2773877D1*
Y2583877D1*
X1855000Y2475000D1*
X2019877D1*
X2024750Y2470127D1*
Y2150127D2*
X1685127D1*
X1675000Y2140000D1*
X1851753Y1620000D2*
X1960000D1*
X1990000Y1650000D1*
Y1915000D1*
X2130000Y2055000D1*
X2174750D1*
Y2000127D1*
X2254750D2*
Y1894750D1*
X2215000Y1855000D1*
X2155000D1*
X2065000Y1765000D1*
Y1585000D1*
X2005000Y1525000D1*
X1851753D1*
X2865000Y2030000D2*
Y2150127D1*
X2884750D1*
Y2230127D2*
X3039873D1*
X3065000Y2205000D1*
Y2075000D1*
X2930000Y1940000D1*
Y1845000D1*
X3015000Y1760000D1*
Y1500000D1*
X2735000Y1220000D1*
X2360000D1*
X2315000Y1265000D1*
X2884750Y2310127D2*
X2744873D1*
X2645000Y2410000D1*
X2884750Y2390127D2*
X3059873D1*
X3180000Y2270000D1*
Y2050000D1*
X3215000Y2085000D1*
X3340000Y1960000D1*
Y1851210D1*
X3349747Y1841463D1*
Y1762080D1*
X3195000Y2080000D2*
X3180000Y2050000D1*
X2884750Y2470127D2*
Y2475000D1*
X2745000D1*
X2690000Y2530000D1*
X2610000D1*
X2520000Y2440000D1*
Y2335000D1*
X2645000Y2210000D1*
X2660000D1*
X1325000Y1440000D2*
D16*
Y1435000D1*
X1585000D1*
X1615000Y1405000D1*
X2140000D1*
X2230000Y1495000D1*
X2024750Y2310127D2*
D13*
X2317013D1*
X2333740Y2293400D1*
X3065000Y2530000D2*
Y2550127D1*
X2884750D1*
X3180000Y2595000D2*
X3144873Y2630127D1*
X2884750D1*
X3730747Y2342080D2*
Y2229253D1*
X3825000Y2135000D1*
X3683170Y1301670D2*
Y1211830D1*
X3685000Y1210000D1*
X2884750Y2710127D2*
X3234873D1*
X3325000Y2620000D1*
Y2575000D1*
X3270363Y2520363D1*
Y2199637D1*
X3476760Y1993240D1*
Y1762093D1*
X3476747Y1762080D1*
X3810170Y1428670D2*
Y1460423D1*
X3921307Y1571560D1*
X4020000Y1670253D1*
Y2361960D1*
X3881960Y2500000D1*
X3880000D1*
X3970000Y1610000D2*
Y1571560D1*
X3921307D1*
X2734750Y2860127D2*
X2914873D1*
X2955000Y2820000D1*
X3603747Y2342080D2*
Y2478747D1*
X3700000Y2575000D1*
X3683170Y1428670D2*
Y1460437D1*
X3830000Y1607267D1*
Y1805000D1*
X3900000Y1875000D1*
Y1985000D1*
X3860000Y2025000D1*
X3740000D1*
X3603747Y2161253D1*
Y2342080D1*
X2024750Y2230127D2*
X2198777D1*
X2254133Y2174770D1*
X1150000Y1575000D2*
Y1715000D1*
Y1805000D1*
X1205000Y1860000D1*
X1350000D1*
X1430000Y1780000D1*
Y1655000D1*
X1465000Y1620000D1*
X1550000D1*
X2465000Y2660000D2*
X2414750Y2710250D1*
Y2860127D1*
X3730747Y1762080D2*
Y1865747D1*
X3780000Y1915000D1*
X1705000Y1635000D2*
Y1620000D1*
X1550000D1*
X1135000Y3665000D2*
D17*
Y3410000D1*
X1140000Y3405000D1*
X1127000Y2932123D2*
D13*
Y3155803D1*
X1158750Y3187553D1*
X1173093Y3201897D1*
X1322227D1*
X1360373Y3163750D1*
Y3079627D1*
X1705000Y1635000D2*
Y1805000D1*
X1755000Y1855000D1*
X2494750Y2000127D2*
Y1874750D1*
X2427500Y1807500D1*
X2350000Y1730000D1*
X2285300D1*
X2249300Y1694000D1*
X3556170Y1301670D2*
Y1211170D1*
X3500000Y1155000D1*
X3320000D1*
X3280000Y1195000D1*
X1158750Y3206627D2*
Y3187553D1*
X2425000Y1810000D2*
X2427500Y1807500D1*
X2565000Y1585000D2*
X2540000D1*
X2425000Y1700000D1*
Y1810000D1*
X2334750Y2000127D2*
Y1855250D1*
X2375000Y1815000D1*
X2420000D1*
X2425000Y1810000D1*
X2787500Y1660386D2*
Y1507500D1*
X2735000Y1455000D1*
X2505000D1*
X2425000Y1535000D1*
Y1700000D1*
X3050000Y3145000D2*
X2915000D1*
X2435000Y3285000D2*
X2455000D1*
X2520000Y3220000D1*
X2560000D1*
Y3230000D1*
X1355000Y1155000D2*
X1340000D1*
Y1295000D1*
X1325000Y1310000D1*
X2435000Y3115000D2*
Y3070000D1*
X2494750Y3010250D1*
Y2860127D1*
X2654750Y2000127D2*
Y1855247D1*
X2705000Y1804997D1*
Y1660357D1*
X2734750Y2000127D2*
Y1940250D1*
X2870000Y1805000D1*
Y1660414D1*
X1155000Y1440000D2*
Y1165000D1*
X1165000Y1155000D1*
X1755000Y1995000D2*
X1835000D1*
X1895000Y1935000D1*
Y1715000D1*
X1851753D1*
X3610000Y2710000D2*
X3820000D1*
X3830000Y2720000D1*
X2260000Y3285000D2*
Y3370000D1*
X2300000Y3410000D1*
X2575000D1*
X2695000Y3290000D1*
X3180000D1*
X3440000Y3030000D1*
Y2900000D1*
X3630000Y2710000D1*
X3610000D1*
X1930000Y3215000D2*
Y3240000D1*
X1840000Y3330000D1*
X1638937D1*
X1563937Y3405000D1*
X1460000D1*
X1320000Y1715000D2*
Y1575000D1*
X1550000Y1525000D2*
Y1530000D1*
X1440000D1*
X1415000Y1555000D1*
X1340000D1*
X1320000Y1575000D1*
X2248740Y2413403D2*
X2252727D1*
X2269130Y2397000D1*
X2031623D1*
X2024750Y2390127D1*
X3556170Y1428670D2*
X3548670D1*
X3485163Y1365163D1*
X3334837D1*
X3120000Y1580000D1*
Y1775000D1*
X3050000Y1845000D1*
Y1895000D1*
X3030000D1*
X3050000Y1915000D1*
X2255000Y2570000D2*
Y2535000D1*
X2461553D1*
X2498153Y2543153D1*
D14*
X2654750Y2699750D1*
Y2860127D1*
X1619140Y2650953D2*
D13*
Y2635077D1*
D17*
X1360373D1*
D14*
Y2757874D1*
X1127000Y2762123D2*
D16*
X1115000D1*
X2565000Y1755000D2*
D13*
X2590000D1*
Y1795000D1*
X2574750Y1810250D1*
Y2000127D1*
X1550000Y1715000D2*
X1600000D1*
Y1810000D1*
X1615000D1*
Y1995000D1*
X1585000D1*
X1158763Y2428873D2*
Y2411923D1*
Y2174873D2*
D15*
Y2428873D1*
X2757300Y3504100D2*
D17*
Y3445000D1*
X3695000D1*
X3725000Y3415000D1*
Y3365000D1*
X3610000Y2900000D2*
Y3020000D1*
D14*
X3725000Y3135000D1*
Y3365000D1*
X2757300Y3504100D2*
D13*
X2845900D1*
X2905000Y3445000D1*
X1741300Y3504100D2*
Y3513417D1*
D15*
X1587437Y3667280D1*
X1412793D1*
X1301623Y3556110D1*
Y3333627D1*
D13*
X1428623Y3206627D1*
X1603247D1*
X1619140Y3190733D1*
Y3206637D1*
X1550000Y1265000D2*
Y1180000D1*
X1650000Y1080000D1*
X3755000D1*
X3810170Y1135170D1*
Y1301670D1*
X1585000Y1855000D2*
X1600000D1*
Y1810000D1*
X2654750Y2860127D2*
X2651000D1*
Y3046000D1*
X2745000Y3140000D1*
Y3145000D1*
X2414750Y2000127D2*
Y2179750D1*
X2440000Y2205000D1*
Y2535000D1*
X2255000D1*
X2574750Y2000127D2*
Y2135500D1*
X2525250Y2185000D1*
X2414750D1*
Y2179750D1*
X1820000Y2375000D2*
D18*
X1230000D1*
X1176127Y2428873D1*
X1158763D1*
Y2174873D2*
D14*
Y2061237D1*
X1225000Y1995000D1*
X1585000D1*
X1158763Y2428873D2*
Y2635077D1*
D17*
X1360373D1*
X1158763D2*
D14*
Y2640080D1*
X1150000D1*
Y2739123D1*
X1127000Y2762123D1*
X3610000Y2900000D2*
D13*
X3820000D1*
X3830000Y2890000D1*
X3349747Y2342080D2*
X3476747D1*
D14*
Y2598253D1*
D13*
X3355000Y2720000D1*
Y2790000D1*
X3340000Y2805000D1*
X3603747Y1762080D2*
D14*
Y2021253D1*
X3476747Y2148253D1*
Y2342080D1*
X3195000Y1910000D2*
D13*
X3225000D1*
Y1655000D1*
X3292563Y1587437D1*
X3524390D1*
X3603747Y1666793D1*
Y1762080D1*
D46*
X3825000Y2135000D3*
X2425000Y1810000D3*
X3180000Y2595000D3*
X1675000Y2140000D3*
X2333740Y2293400D3*
X2254133Y2174770D3*
X3325000Y2575000D3*
X2248740Y2413403D3*
X2865000Y2030000D3*
X2645000Y2410000D3*
X3280000Y1195000D3*
X1705000Y1635000D3*
X1135000Y3665000D3*
X2955000Y2820000D3*
X3970000Y1610000D3*
X3780000Y1915000D3*
X3065000Y2530000D3*
X3700000Y2575000D3*
X2465000Y2660000D3*
X2255000Y2570000D3*
X3050000Y3145000D3*
X1820000Y2375000D3*
X1325000Y1310000D3*
X2560000Y3230000D3*
X2660000Y2210000D3*
X2230000Y1495000D3*
X3685000Y1210000D3*
X3050000Y1915000D3*
X3880000Y2500000D3*
D21*
X1158763Y2174873D3*
D22*
X3880543Y2301873D3*
X1158763Y2428873D3*
D23*
X2757300Y3504100D3*
X1741300D3*
X2249300Y1694000D3*
D24*
X2565000Y1755000D3*
Y1585000D3*
X2435000Y3285000D3*
Y3115000D3*
X1127000Y2762123D3*
Y2932123D3*
D26*
X1585000Y1855000D3*
X1755000D3*
X2915000Y3145000D3*
X2745000D3*
D27*
X1355000Y1155000D3*
X1165000D3*
D28*
X3810170Y1428670D3*
Y1301670D3*
X3683170Y1428670D3*
Y1301670D3*
X3556170Y1428670D3*
Y1301670D3*
D29*
X2060000Y1265000D3*
X1550000D3*
X1805000D3*
X2315000D3*
D30*
X1158750Y3206627D3*
D29*
X3952750Y3063750D3*
D32*
X3610000Y2710000D3*
Y2900000D3*
X3340000Y2805000D3*
D24*
X1619140Y2650953D3*
Y2820953D3*
Y3206637D3*
Y3036637D3*
D26*
X1755000Y1995000D3*
X1585000D3*
D24*
X2260000Y3285000D3*
Y3115000D3*
X3195000Y2080000D3*
Y1910000D3*
D26*
X1325000Y1440000D3*
X1155000D3*
D24*
X1930000Y3215000D3*
Y3045000D3*
X3830000Y2720000D3*
Y2890000D3*
D26*
X1150000Y1575000D3*
X1320000D3*
X1150000Y1715000D3*
X1320000D3*
D35*
X2174750Y2000127D3*
X2254750D3*
X2334750D3*
X2414750D3*
X2494750D3*
X2574750D3*
X2654750D3*
X2734750D3*
D36*
X2884750Y2150127D3*
Y2230127D3*
Y2310127D3*
Y2390127D3*
Y2470127D3*
Y2550127D3*
Y2630127D3*
Y2710127D3*
D35*
X2734750Y2860127D3*
X2654750D3*
X2574750D3*
X2494750D3*
X2414750D3*
X2334750D3*
X2254750D3*
X2174750D3*
D36*
X2024750Y2710127D3*
Y2630127D3*
Y2550127D3*
Y2470127D3*
Y2390127D3*
Y2310127D3*
Y2230127D3*
Y2150127D3*
D38*
X1460373Y3079624D3*
X1360373Y3079627D3*
X1260373Y3079624D3*
Y2757874D3*
X1360373D3*
X1460373D3*
D39*
X1360373Y2918751D3*
D42*
X3349747Y1762080D3*
X3476747D3*
X3603747D3*
X3730747D3*
Y2342080D3*
X3603747D3*
X3476747D3*
X3349747D3*
D22*
X3725000Y3365000D3*
Y3725000D3*
X3365000D3*
D44*
X1550000Y1715000D3*
Y1620000D3*
Y1525000D3*
X1851753D3*
Y1620000D3*
Y1715000D3*
D45*
X1460000Y3915000D3*
X1140000D3*
Y3405000D3*
X1460000D3*
D93*
X2870000Y1660414D3*
X2705000Y1660357D3*
X2787500Y1660386D3*
M02*
