G04 DipTrace 3.0.0.1*
G04 Limbus-modelD-rev02.GBL*
%MOMM*%
G04 #@! TF.FileFunction,Copper,L2,Bot*
G04 #@! TF.Part,Single*
G04 #@! TA.AperFunction,Conductor*
%ADD13C,0.33*%
%ADD14C,0.5*%
%ADD15C,0.7*%
%ADD16C,0.4*%
%ADD17C,0.6*%
%ADD18C,0.8*%
G04 #@! TA.AperFunction,CopperBalancing*
%ADD19C,0.3*%
G04 #@! TA.AperFunction,ComponentPad*
%ADD21R,1.6X1.6*%
%ADD22C,1.7*%
%ADD23C,2.2*%
%ADD24R,1.0X1.1*%
%ADD25R,1.8X1.8*%
%ADD26R,1.1X1.0*%
%ADD28C,0.7874*%
G04 #@! TA.AperFunction,ComponentPad*
%ADD29C,1.5*%
%ADD30C,1.6*%
%ADD33R,1.5X1.5*%
%ADD41R,2.0X0.6*%
G04 #@! TA.AperFunction,ViaPad*
%ADD46C,1.016*%
%FSLAX35Y35*%
G04*
G71*
G90*
G75*
G01*
G04 Bottom*
%LPD*%
X3490000Y3099000D2*
D13*
Y3095720D1*
X3937183D1*
D15*
Y3063750D1*
X3952750D1*
X1675000Y2140000D2*
D13*
Y2120000D1*
X1650490Y2095490D1*
X1523930D1*
X1520420Y2099000D1*
X1440000D1*
X2865000Y2030000D2*
X2855000D1*
Y1510000D1*
X2790000Y1445000D1*
X2380000D1*
X2325000Y1390000D1*
X2245000D1*
X2120000Y1265000D1*
X2060000D1*
X3725000Y3725000D2*
Y3755000D1*
X3630000D1*
X3215000Y3340000D1*
X2415000D1*
X2340000Y3265000D1*
Y2645000D1*
X2360000Y2625000D1*
Y2550000D1*
X2500000Y2410000D1*
X2645000D1*
X3550000Y3730000D2*
X3725000D1*
Y3725000D1*
X2230000Y1495000D2*
D16*
X2260000Y1525000D1*
X2715000D1*
X2760000Y1570000D1*
Y2120000D1*
X2675000Y2205000D1*
X2655000D1*
X2660000Y2210000D1*
X1983000Y3775000D2*
D13*
Y3684510D1*
X2047860Y3619650D1*
Y2452140D1*
X2210000Y2290000D1*
X2320000D1*
X2333740Y2303740D1*
Y2293400D1*
X3490000Y2099000D2*
Y2100000D1*
X3385000D1*
X3280000Y2205000D1*
Y2290000D1*
X3065000Y2505000D1*
Y2530000D1*
X3180000Y2595000D2*
Y2535000D1*
X3413113Y2301887D1*
X3487113D1*
X3490000Y2299000D1*
X3825000Y2135000D2*
X3829905Y2139905D1*
X3667923Y2301887D1*
X3492887D1*
X3685000Y1210000D2*
X3667923D1*
Y2301887D1*
X3325000Y2575000D2*
X3415000Y2485000D1*
X3476000D1*
X3490000Y2499000D1*
X3880000Y2500000D2*
X3840000Y2460000D1*
X3615000D1*
X3576000Y2499000D1*
X3490000D1*
X3968937Y1730327D2*
Y1611063D1*
X3970000Y1610000D1*
X2955000Y2820000D2*
X3260303D1*
X3380303Y2700000D1*
X3490000D1*
Y2699000D1*
X3700000Y2575000D2*
Y2586700D1*
X3587897Y2698803D1*
X3490197D1*
X2254133Y2174770D2*
X2206730D1*
X1968477Y2413023D1*
Y3540267D1*
X1856000Y3652743D1*
Y3775000D1*
X2110000Y3902000D2*
D17*
X2189977Y3981977D1*
D13*
X2224567Y4016567D1*
X3270363D1*
X3365000Y3921930D1*
Y3725000D1*
X1176300Y3651403D2*
Y3905430D1*
X2249300Y1694000D2*
D14*
X1764000D1*
X1705000Y1635000D1*
X2110000Y3775000D2*
D13*
Y3763907D1*
X2158997Y3714910D1*
X2274910D1*
X2435000Y3875000D1*
X2470000D1*
Y3705000D2*
X2434867D1*
X2127243Y3397377D1*
Y2534900D1*
X2248740Y2413403D1*
X3050000Y1915000D2*
Y2000000D1*
X2740000Y2310000D1*
X2480000D1*
X2376597Y2413403D1*
X2248740D1*
X2470000Y3705000D2*
X2610000D1*
X3050000Y1915000D2*
X3030000D1*
X2935000Y1820000D1*
Y1415000D1*
X3065000Y1285000D1*
X1476300Y3905430D2*
D18*
Y3651403D1*
X2757300Y3504100D2*
D13*
Y3812700D1*
X2695000Y3875000D1*
X2610000D1*
X2255000Y2570000D2*
D15*
X2222503Y2602497D1*
Y3302117D1*
X2424487Y3504100D1*
X2757300D1*
X1476300Y3651403D2*
D18*
Y3504100D1*
Y3326300D1*
D17*
X1449000Y3299000D1*
X1440000D1*
X1741300Y3504100D2*
D18*
X1476300D1*
X1158763Y2174873D2*
D14*
X1105000D1*
Y1115000D1*
X1130000Y1090000D1*
X1385000D1*
X1550000Y1255000D1*
Y1265000D1*
X1741300Y3504100D2*
D18*
Y3468700D1*
X1865000Y3345000D1*
Y2420000D1*
X1820000Y2375000D1*
X3940000Y3345000D2*
D13*
X3745000D1*
X3725000Y3365000D1*
D46*
X3825000Y2135000D3*
X2425000Y1810000D3*
X3180000Y2595000D3*
X1675000Y2140000D3*
X2333740Y2293400D3*
X2254133Y2174770D3*
X3325000Y2575000D3*
X2248740Y2413403D3*
X2865000Y2030000D3*
X2645000Y2410000D3*
X3280000Y1195000D3*
X1705000Y1635000D3*
X1135000Y3665000D3*
X2955000Y2820000D3*
X3970000Y1610000D3*
X3780000Y1915000D3*
X3065000Y2530000D3*
X3700000Y2575000D3*
X2465000Y2660000D3*
X2255000Y2570000D3*
X3050000Y3145000D3*
X1820000Y2375000D3*
X1325000Y1310000D3*
X2560000Y3230000D3*
X2660000Y2210000D3*
X2230000Y1495000D3*
X3685000Y1210000D3*
X3050000Y1915000D3*
X3880000Y2500000D3*
X1065659Y4003653D2*
D19*
X1327081D1*
X1817066D2*
X4030304D1*
X1065659Y3973987D2*
X1327081D1*
X2048862D2*
X2360792D1*
X2719175D2*
X4030304D1*
X1065659Y3944320D2*
X1327081D1*
X2167984D2*
X2225030D1*
X2248984D2*
X2360792D1*
X2719937D2*
X4030304D1*
X1065659Y3914653D2*
X1327081D1*
X2313999D2*
X2360792D1*
X2761187D2*
X4030304D1*
X1065659Y3884987D2*
X1327081D1*
X2790835D2*
X4030304D1*
X1065659Y3855320D2*
X1327081D1*
X2819194D2*
X3667667D1*
X3782359D2*
X4030304D1*
X1065659Y3825653D2*
X1327081D1*
X2831851D2*
X3440792D1*
X3827007D2*
X4030304D1*
X1065659Y3795987D2*
X1327081D1*
X2833023D2*
X3440792D1*
X3850034D2*
X4030304D1*
X1065659Y3766320D2*
X1327081D1*
X2833023D2*
X3440792D1*
X3863042D2*
X4030304D1*
X1065659Y3736653D2*
X1327081D1*
X2833023D2*
X3440792D1*
X3868726D2*
X4030304D1*
X1065659Y3706987D2*
X1327081D1*
X2833023D2*
X3440792D1*
X3868023D2*
X4030304D1*
X1065659Y3677320D2*
X1327081D1*
X2833023D2*
X3440792D1*
X3860933D2*
X4030304D1*
X1065659Y3647653D2*
X1327081D1*
X2844038D2*
X3416827D1*
X3846109D2*
X4030304D1*
X1065659Y3617987D2*
X1327081D1*
X2881362D2*
X3387179D1*
X3598784D2*
X3629874D1*
X3820093D2*
X4030304D1*
X1065659Y3588320D2*
X1327081D1*
X2903569D2*
X3357530D1*
X3569136D2*
X3686534D1*
X3763433D2*
X4030304D1*
X1065659Y3558653D2*
X1327081D1*
X2917280D2*
X3327823D1*
X3539487D2*
X4030304D1*
X1065659Y3528987D2*
X1327081D1*
X2924605D2*
X3298175D1*
X3509780D2*
X4030304D1*
X1065659Y3499320D2*
X1377120D1*
X2926421D2*
X3268526D1*
X3480132D2*
X3678448D1*
X3771519D2*
X4030304D1*
X1065659Y3469653D2*
X1377120D1*
X2922905D2*
X3238819D1*
X3450484D2*
X3627237D1*
X3822788D2*
X4030304D1*
X1065659Y3439987D2*
X1377120D1*
X2913648D2*
X3209171D1*
X3420776D2*
X3602335D1*
X1065659Y3410320D2*
X1377120D1*
X3391128D2*
X3588273D1*
X1065659Y3380653D2*
X1280792D1*
X1599214D2*
X1627023D1*
X3361480D2*
X3581651D1*
X1065659Y3350987D2*
X1280792D1*
X1599214D2*
X1673663D1*
X3331773D2*
X3581476D1*
X1065659Y3321320D2*
X1280792D1*
X1599214D2*
X1749659D1*
X3302124D2*
X3587745D1*
X1065659Y3291653D2*
X1280792D1*
X1599214D2*
X1765773D1*
X3272476D2*
X3601339D1*
X1065659Y3261987D2*
X1280792D1*
X1599214D2*
X1765773D1*
X2442788D2*
X3625421D1*
X1065659Y3232320D2*
X1280792D1*
X1599214D2*
X1765773D1*
X2415718D2*
X3673702D1*
X3776323D2*
X4030304D1*
X1065659Y3202653D2*
X1765773D1*
X2415718D2*
X4030304D1*
X1065659Y3172987D2*
X1280792D1*
X1599214D2*
X1765773D1*
X2415718D2*
X3330812D1*
X3649175D2*
X3877081D1*
X1065659Y3143320D2*
X1280792D1*
X1599214D2*
X1765773D1*
X2415718D2*
X3330812D1*
X1065659Y3113653D2*
X1280792D1*
X1599214D2*
X1765773D1*
X2415718D2*
X3330812D1*
X1065659Y3083987D2*
X1280792D1*
X1599214D2*
X1765773D1*
X2415718D2*
X3330812D1*
X1065659Y3054320D2*
X1280792D1*
X1599214D2*
X1765773D1*
X2415718D2*
X3330812D1*
X1065659Y3024653D2*
X1280792D1*
X1599214D2*
X1765773D1*
X2415718D2*
X3330812D1*
X1065659Y2994987D2*
X1765773D1*
X2415718D2*
X3837999D1*
X1065659Y2965320D2*
X1280792D1*
X1599214D2*
X1765773D1*
X2415718D2*
X3863019D1*
X1065659Y2935653D2*
X1280792D1*
X1599214D2*
X1765773D1*
X2415718D2*
X3921378D1*
X3984097D2*
X4030304D1*
X1065659Y2905987D2*
X1280792D1*
X1599214D2*
X1765773D1*
X2415718D2*
X2888312D1*
X3021694D2*
X4030304D1*
X1065659Y2876320D2*
X1280792D1*
X1599214D2*
X1765773D1*
X2415718D2*
X2861007D1*
X3309273D2*
X4030304D1*
X1065659Y2846653D2*
X1280792D1*
X1599214D2*
X1765773D1*
X2415718D2*
X2848351D1*
X3339448D2*
X4030304D1*
X1065659Y2816987D2*
X1280792D1*
X1599214D2*
X1765773D1*
X2415718D2*
X2845069D1*
X3369155D2*
X4030304D1*
X1065659Y2787320D2*
X1765773D1*
X2415718D2*
X2850109D1*
X3398804D2*
X4030304D1*
X1065659Y2757653D2*
X1280792D1*
X1599214D2*
X1765773D1*
X2415718D2*
X2865050D1*
X3649175D2*
X4030304D1*
X1065659Y2727987D2*
X1280792D1*
X1599214D2*
X1765773D1*
X2415718D2*
X2897394D1*
X3012612D2*
X3246495D1*
X3664526D2*
X4030304D1*
X1065659Y2698320D2*
X1280792D1*
X1599214D2*
X1765773D1*
X2415718D2*
X3149171D1*
X3210835D2*
X3276144D1*
X3694175D2*
X4030304D1*
X1065659Y2668653D2*
X1280792D1*
X1599214D2*
X1765773D1*
X2421109D2*
X3099366D1*
X3260640D2*
X3270210D1*
X3754761D2*
X4030304D1*
X1065659Y2638987D2*
X1280792D1*
X1599214D2*
X1765773D1*
X2434351D2*
X3079444D1*
X3788745D2*
X4030304D1*
X1065659Y2609320D2*
X1765773D1*
X2435698D2*
X2990206D1*
X3804331D2*
X4030304D1*
X1065659Y2579653D2*
X1280792D1*
X1599214D2*
X1765773D1*
X2436167D2*
X2967237D1*
X3954448D2*
X4030304D1*
X1065659Y2549987D2*
X1083132D1*
X1234351D2*
X1280792D1*
X1599214D2*
X1765773D1*
X2465816D2*
X2956866D1*
X3977593D2*
X4030304D1*
X1269331Y2520320D2*
X1280761D1*
X1599214D2*
X1765773D1*
X2495523D2*
X2955460D1*
X3988081D2*
X4030304D1*
X1599214Y2490653D2*
X1765773D1*
X2525171D2*
X2571671D1*
X2718296D2*
X2962491D1*
X3989605D2*
X4030304D1*
X1599214Y2460987D2*
X1753292D1*
X2742085D2*
X2980245D1*
X3982632D2*
X4030304D1*
X1599214Y2431320D2*
X1726046D1*
X2752866D2*
X3020616D1*
X3965054D2*
X4030304D1*
X1300327Y2401653D2*
X1713390D1*
X2754683D2*
X3062511D1*
X3419136D2*
X3568644D1*
X3925151D2*
X4030304D1*
X1599214Y2371987D2*
X1710050D1*
X2780991D2*
X3092218D1*
X3690191D2*
X4030304D1*
X1599214Y2342320D2*
X1715089D1*
X2813511D2*
X3121866D1*
X3733316D2*
X4030304D1*
X1241968Y2312653D2*
X1280792D1*
X1599214D2*
X1730030D1*
X1909937D2*
X1963058D1*
X2843159D2*
X3151515D1*
X3762964D2*
X4030304D1*
X1599214Y2282987D2*
X1762374D1*
X1877593D2*
X1992706D1*
X2872808D2*
X3181222D1*
X3792612D2*
X4030304D1*
X1599214Y2253320D2*
X2022355D1*
X2902515D2*
X3204308D1*
X3822319D2*
X4030304D1*
X1744702Y2223653D2*
X2052062D1*
X2417886D2*
X2550870D1*
X2932163D2*
X3204308D1*
X3887886D2*
X4030304D1*
X1297984Y2193987D2*
X1579620D1*
X1770366D2*
X2081710D1*
X2376284D2*
X2551222D1*
X2961812D2*
X3205128D1*
X3917300D2*
X4030304D1*
X1782202Y2164320D2*
X2111359D1*
X2363628D2*
X2560245D1*
X2991519D2*
X3216730D1*
X3930894D2*
X4030304D1*
X1784839Y2134653D2*
X2141007D1*
X2356304D2*
X2581046D1*
X3021167D2*
X3244562D1*
X3934995D2*
X4030304D1*
X1779097Y2104987D2*
X2170011D1*
X2338257D2*
X2636476D1*
X3050816D2*
X3274210D1*
X3930718D2*
X4030304D1*
X1763218Y2075320D2*
X2211671D1*
X2296597D2*
X2680773D1*
X3080523D2*
X3303859D1*
X3916831D2*
X4030304D1*
X1728472Y2045653D2*
X2680773D1*
X3109585D2*
X3330812D1*
X3743628D2*
X3763116D1*
X3886890D2*
X4030304D1*
X1189175Y2015987D2*
X1280792D1*
X1599214D2*
X2680773D1*
X3123941D2*
X3330812D1*
X3743628D2*
X4030304D1*
X1189175Y1986320D2*
X2680773D1*
X3132788D2*
X3592198D1*
X3743628D2*
X4030304D1*
X1189175Y1956653D2*
X1280792D1*
X1599214D2*
X2680773D1*
X3151538D2*
X3330812D1*
X3743628D2*
X4030304D1*
X1189175Y1926987D2*
X1280792D1*
X1599214D2*
X2680773D1*
X3159331D2*
X3330812D1*
X3743628D2*
X4030304D1*
X1189175Y1897320D2*
X1280792D1*
X1599214D2*
X2680773D1*
X3158511D2*
X3330812D1*
X3743628D2*
X4030304D1*
X1189175Y1867653D2*
X1280792D1*
X1599214D2*
X2680773D1*
X3148960D2*
X3330812D1*
X3743628D2*
X4030304D1*
X1189175Y1837987D2*
X1280792D1*
X1599214D2*
X2185948D1*
X2314058D2*
X2680773D1*
X3127280D2*
X3330812D1*
X3743628D2*
X4030304D1*
X1189175Y1808320D2*
X2136554D1*
X2363394D2*
X2680773D1*
X3029136D2*
X3038760D1*
X3061245D2*
X3592198D1*
X3743628D2*
X3854757D1*
X1189175Y1778653D2*
X2109073D1*
X2390933D2*
X2680773D1*
X3010679D2*
X3592198D1*
X3743628D2*
X3854757D1*
X1189175Y1748987D2*
X2092726D1*
X2407280D2*
X2680773D1*
X3010679D2*
X3592198D1*
X3743628D2*
X3854757D1*
X1189175Y1719320D2*
X2085636D1*
X2414312D2*
X2680773D1*
X3010679D2*
X3592198D1*
X3743628D2*
X3854757D1*
X1189175Y1689653D2*
X2082413D1*
X2417593D2*
X2680773D1*
X3010679D2*
X3592198D1*
X3743628D2*
X3854757D1*
X1189175Y1659987D2*
X2087511D1*
X2412495D2*
X2680773D1*
X3010679D2*
X3592198D1*
X3743628D2*
X3854757D1*
X1189175Y1630320D2*
X2098644D1*
X2401362D2*
X2680773D1*
X3010679D2*
X3592198D1*
X3743628D2*
X3854757D1*
X1189175Y1600653D2*
X2116163D1*
X3010679D2*
X3592198D1*
X3743628D2*
X3860382D1*
X1189175Y1570987D2*
X2148214D1*
X3010679D2*
X3405753D1*
X3452593D2*
X3592198D1*
X3743628D2*
X3867355D1*
X1189175Y1541320D2*
X2130519D1*
X3010679D2*
X3350558D1*
X3507788D2*
X3592198D1*
X3743628D2*
X3884933D1*
X1189175Y1511653D2*
X2121319D1*
X3010679D2*
X3329933D1*
X3528413D2*
X3592198D1*
X3743628D2*
X3924835D1*
X4015151D2*
X4030304D1*
X1189175Y1481987D2*
X2120792D1*
X3010679D2*
X3321085D1*
X3537261D2*
X3592198D1*
X3743628D2*
X4030304D1*
X1189175Y1452320D2*
X2128878D1*
X3010679D2*
X3320968D1*
X3537378D2*
X3592198D1*
X3743628D2*
X3873507D1*
X4000855D2*
X4030304D1*
X1189175Y1422653D2*
X2148155D1*
X3033179D2*
X3329581D1*
X3528765D2*
X3592198D1*
X3743628D2*
X3844855D1*
X1189175Y1392987D2*
X1518155D1*
X1581870D2*
X2028155D1*
X2091870D2*
X2142179D1*
X2843804D2*
X2862706D1*
X3199175D2*
X3349796D1*
X3508550D2*
X3592198D1*
X3743628D2*
X3831671D1*
X1189175Y1363320D2*
X1460148D1*
X1639878D2*
X1970148D1*
X2404878D2*
X2470773D1*
X2739214D2*
X2880870D1*
X3199175D2*
X3389698D1*
X3468589D2*
X3592198D1*
X3743628D2*
X3827980D1*
X1189175Y1333653D2*
X1435187D1*
X1664780D2*
X1945187D1*
X2429780D2*
X2470773D1*
X2739214D2*
X2910519D1*
X3199175D2*
X3346398D1*
X3511948D2*
X3592198D1*
X3743628D2*
X3832726D1*
X1189175Y1303987D2*
X1421710D1*
X1678257D2*
X1931710D1*
X2443257D2*
X2470773D1*
X2739214D2*
X2930792D1*
X3199175D2*
X3327941D1*
X3530405D2*
X3592198D1*
X3743628D2*
X3847374D1*
X1189175Y1274320D2*
X1416144D1*
X1683882D2*
X1926144D1*
X2448882D2*
X2470773D1*
X2739214D2*
X2930792D1*
X3199175D2*
X3320499D1*
X3537847D2*
X3592198D1*
X3773511D2*
X3879191D1*
X3995171D2*
X4030304D1*
X1189175Y1244653D2*
X1417374D1*
X1682593D2*
X1927374D1*
X2447593D2*
X2470773D1*
X2739214D2*
X2930792D1*
X3199175D2*
X3321671D1*
X3536675D2*
X3580773D1*
X3789214D2*
X4030304D1*
X1189175Y1214987D2*
X1392179D1*
X1674273D2*
X1935694D1*
X2439273D2*
X2470773D1*
X2739214D2*
X2930792D1*
X3199175D2*
X3331749D1*
X3526597D2*
X3575089D1*
X3794898D2*
X4030304D1*
X1189175Y1185320D2*
X1362472D1*
X1657222D2*
X1952745D1*
X2167222D2*
X2207745D1*
X2422222D2*
X2470773D1*
X2739214D2*
X2930792D1*
X3199175D2*
X3354366D1*
X3503980D2*
X3577901D1*
X3792144D2*
X4030304D1*
X1625523Y1155653D2*
X1984503D1*
X2135523D2*
X2239503D1*
X2390523D2*
X2470773D1*
X2739214D2*
X2930792D1*
X3199175D2*
X3589855D1*
X3780191D2*
X4030304D1*
X1538804Y1125987D2*
X3615753D1*
X3754234D2*
X4030304D1*
X1236606Y2311073D2*
X1283833D1*
X1283800Y2363327D1*
X1279156Y2355097D1*
X1272997Y2345878D1*
X1266133Y2337171D1*
X1258607Y2329030D1*
X1250465Y2321504D1*
X1236393Y2311055D1*
X1294963Y2212812D2*
Y2185155D1*
X1578000Y2185200D1*
X1583768Y2195907D1*
X1593637Y2209491D1*
X1605509Y2221363D1*
X1619093Y2231232D1*
X1634053Y2238855D1*
X1650021Y2244044D1*
X1666605Y2246670D1*
X1683395D1*
X1699979Y2244044D1*
X1715947Y2238855D1*
X1730907Y2231232D1*
X1744491Y2221363D1*
X1756363Y2209491D1*
X1766232Y2195907D1*
X1773855Y2180947D1*
X1779044Y2164979D1*
X1781670Y2148395D1*
Y2131605D1*
X1779044Y2115021D1*
X1773855Y2099053D1*
X1766232Y2084093D1*
X1756363Y2070509D1*
X1744491Y2058637D1*
X1730907Y2048768D1*
X1715947Y2041145D1*
X1699979Y2035956D1*
X1689294Y2034028D1*
X1678311Y2028324D1*
X1667462Y2024798D1*
X1656194Y2023014D1*
X1596174Y2022790D1*
X1596200Y2012800D1*
X1283800D1*
Y2038639D1*
X1186155Y2038673D1*
X1186200Y1171221D1*
X1351309Y1171200D1*
X1421012Y1240847D1*
X1419204Y1254706D1*
X1418800Y1265000D1*
X1419204Y1275294D1*
X1420415Y1285524D1*
X1422425Y1295628D1*
X1425221Y1305543D1*
X1428787Y1315208D1*
X1433100Y1324564D1*
X1438134Y1333552D1*
X1443857Y1342117D1*
X1450235Y1350208D1*
X1457228Y1357772D1*
X1464792Y1364765D1*
X1472883Y1371143D1*
X1481448Y1376866D1*
X1490436Y1381900D1*
X1499792Y1386213D1*
X1509457Y1389779D1*
X1519372Y1392575D1*
X1529476Y1394585D1*
X1539706Y1395796D1*
X1550000Y1396200D1*
X1560294Y1395796D1*
X1570524Y1394585D1*
X1580628Y1392575D1*
X1590543Y1389779D1*
X1600208Y1386213D1*
X1609564Y1381900D1*
X1618552Y1376866D1*
X1627117Y1371143D1*
X1635208Y1364765D1*
X1642772Y1357772D1*
X1649765Y1350208D1*
X1656143Y1342117D1*
X1661866Y1333552D1*
X1666900Y1324564D1*
X1671213Y1315208D1*
X1674779Y1305543D1*
X1677575Y1295628D1*
X1679585Y1285524D1*
X1680796Y1275294D1*
X1681200Y1265000D1*
X1680796Y1254706D1*
X1679585Y1244476D1*
X1677575Y1234372D1*
X1674779Y1224457D1*
X1671213Y1214792D1*
X1666900Y1205436D1*
X1661866Y1196448D1*
X1656143Y1187883D1*
X1649765Y1179792D1*
X1642772Y1172228D1*
X1635208Y1165235D1*
X1627117Y1158857D1*
X1618552Y1153134D1*
X1609564Y1148100D1*
X1600208Y1143787D1*
X1590543Y1140221D1*
X1580628Y1137425D1*
X1570524Y1135415D1*
X1560294Y1134204D1*
X1543848Y1134042D1*
X1520120Y1110285D1*
X3646204Y1110260D1*
X3636423Y1114662D1*
X3622107Y1123435D1*
X3609340Y1134340D1*
X3598435Y1147107D1*
X3589662Y1161423D1*
X3583237Y1176935D1*
X3579317Y1193262D1*
X3578000Y1210000D1*
X3579317Y1226738D1*
X3583237Y1243065D1*
X3589662Y1258577D1*
X3595208Y1268063D1*
X3595223Y1812754D1*
X3333800Y1812800D1*
Y1985200D1*
X3595187D1*
X3595223Y2012793D1*
X3333800Y2012800D1*
X3333593Y2048593D1*
X3224718Y2157785D1*
X3218013Y2167014D1*
X3212834Y2177179D1*
X3209309Y2188028D1*
X3207524Y2199296D1*
X3207300Y2259902D1*
X3041610Y2425576D1*
X3031935Y2428237D1*
X3016423Y2434662D1*
X3002107Y2443435D1*
X2989340Y2454340D1*
X2978435Y2467107D1*
X2969662Y2481423D1*
X2963237Y2496935D1*
X2959317Y2513262D1*
X2958000Y2530000D1*
X2959317Y2546738D1*
X2963237Y2563065D1*
X2969662Y2578577D1*
X2978435Y2592893D1*
X2989340Y2605660D1*
X3002107Y2616565D1*
X3016423Y2625338D1*
X3031935Y2631763D1*
X3048262Y2635683D1*
X3065000Y2637000D1*
X3081054Y2635764D1*
X3088768Y2650907D1*
X3098637Y2664491D1*
X3110509Y2676363D1*
X3124093Y2686232D1*
X3139053Y2693855D1*
X3155021Y2699044D1*
X3171605Y2701670D1*
X3188395D1*
X3204979Y2699044D1*
X3220947Y2693855D1*
X3235907Y2686232D1*
X3249491Y2676363D1*
X3261363Y2664491D1*
X3263090Y2662300D1*
X3276423Y2670338D1*
X3291935Y2676763D1*
X3298789Y2678696D1*
X3230164Y2747326D1*
X3033487Y2747300D1*
X3024491Y2738637D1*
X3010907Y2728768D1*
X2995947Y2721145D1*
X2979979Y2715956D1*
X2963395Y2713330D1*
X2946605D1*
X2930021Y2715956D1*
X2914053Y2721145D1*
X2899093Y2728768D1*
X2885509Y2738637D1*
X2873637Y2750509D1*
X2863768Y2764093D1*
X2856145Y2779053D1*
X2850956Y2795021D1*
X2848330Y2811605D1*
Y2828395D1*
X2850956Y2844979D1*
X2856145Y2860947D1*
X2863768Y2875907D1*
X2873637Y2889491D1*
X2885509Y2901363D1*
X2899093Y2911232D1*
X2914053Y2918855D1*
X2930021Y2924044D1*
X2946605Y2926670D1*
X2963395D1*
X2979979Y2924044D1*
X2995947Y2918855D1*
X3010907Y2911232D1*
X3024491Y2901363D1*
X3033401Y2892696D1*
X3266007Y2892476D1*
X3277275Y2890692D1*
X3288125Y2887166D1*
X3298289Y2881987D1*
X3307518Y2875282D1*
X3343530Y2839587D1*
X3397930Y2785187D1*
X3646201Y2785199D1*
Y2743305D1*
X3707791Y2681723D1*
X3724979Y2679044D1*
X3740947Y2673855D1*
X3755907Y2666232D1*
X3769491Y2656363D1*
X3781363Y2644491D1*
X3791232Y2630907D1*
X3798855Y2615947D1*
X3804044Y2599979D1*
X3806670Y2583395D1*
X3806878Y2578115D1*
X3817107Y2586565D1*
X3831423Y2595338D1*
X3846935Y2601763D1*
X3863262Y2605683D1*
X3880000Y2607000D1*
X3896738Y2605683D1*
X3913065Y2601763D1*
X3928577Y2595338D1*
X3942893Y2586565D1*
X3955660Y2575660D1*
X3966565Y2562893D1*
X3975338Y2548577D1*
X3981763Y2533065D1*
X3985683Y2516738D1*
X3987000Y2500000D1*
X3985683Y2483262D1*
X3981763Y2466935D1*
X3975338Y2451423D1*
X3966565Y2437107D1*
X3955660Y2424340D1*
X3942893Y2413435D1*
X3928577Y2404662D1*
X3913065Y2398237D1*
X3896738Y2394317D1*
X3880000Y2393000D1*
X3869552Y2393573D1*
X3856972Y2389309D1*
X3845704Y2387524D1*
X3795000Y2387300D1*
X3609296Y2387524D1*
X3598028Y2389309D1*
X3587179Y2392834D1*
X3577014Y2398013D1*
X3567785Y2404718D1*
X3559409Y2412778D1*
X3481704Y2412524D1*
X3416000Y2412300D1*
X3404970Y2412799D1*
X3432642Y2385171D1*
X3646201Y2385199D1*
Y2374594D1*
X3673627Y2374363D1*
X3684895Y2372578D1*
X3695745Y2369053D1*
X3705909Y2363874D1*
X3715138Y2357168D1*
X3751150Y2321474D1*
X3830741Y2241883D1*
X3841738Y2240683D1*
X3858065Y2236763D1*
X3873577Y2230338D1*
X3887893Y2221565D1*
X3900660Y2210660D1*
X3911565Y2197893D1*
X3920338Y2183577D1*
X3926763Y2168065D1*
X3930683Y2151738D1*
X3932000Y2135000D1*
X3930683Y2118262D1*
X3926763Y2101935D1*
X3920338Y2086423D1*
X3911565Y2072107D1*
X3900660Y2059340D1*
X3887893Y2048435D1*
X3873577Y2039662D1*
X3858065Y2033237D1*
X3841738Y2029317D1*
X3825000Y2028000D1*
X3808262Y2029317D1*
X3791935Y2033237D1*
X3776423Y2039662D1*
X3762107Y2048435D1*
X3749340Y2059340D1*
X3740609Y2069349D1*
X3740907Y1301232D1*
X3754491Y1291363D1*
X3766363Y1279491D1*
X3776232Y1265907D1*
X3783855Y1250947D1*
X3789044Y1234979D1*
X3791670Y1218395D1*
Y1201605D1*
X3789044Y1185021D1*
X3783855Y1169053D1*
X3776232Y1154093D1*
X3766363Y1140509D1*
X3754491Y1128637D1*
X3740907Y1118768D1*
X3725947Y1111145D1*
X3723576Y1110270D1*
X4033275Y1110260D1*
X4033320Y1320084D1*
X4027720Y1309681D1*
X4017925Y1296199D1*
X4006141Y1284415D1*
X3992659Y1274620D1*
X3977811Y1267054D1*
X3961962Y1261904D1*
X3945502Y1259297D1*
X3928838D1*
X3912378Y1261904D1*
X3896529Y1267054D1*
X3881681Y1274620D1*
X3868199Y1284415D1*
X3856415Y1296199D1*
X3846620Y1309681D1*
X3839054Y1324529D1*
X3833904Y1340378D1*
X3831297Y1356838D1*
Y1373502D1*
X3833904Y1389962D1*
X3839054Y1405811D1*
X3846620Y1420659D1*
X3856415Y1434141D1*
X3868199Y1445925D1*
X3881681Y1455720D1*
X3896529Y1463286D1*
X3912378Y1468436D1*
X3928838Y1471043D1*
X3945502D1*
X3961962Y1468436D1*
X3977811Y1463286D1*
X3992659Y1455720D1*
X4006141Y1445925D1*
X4017925Y1434141D1*
X4027720Y1420659D1*
X4033309Y1410100D1*
X4033320Y1523756D1*
X4025907Y1518768D1*
X4010947Y1511145D1*
X3994979Y1505956D1*
X3978395Y1503330D1*
X3961605D1*
X3945021Y1505956D1*
X3929053Y1511145D1*
X3914093Y1518768D1*
X3900509Y1528637D1*
X3888637Y1540509D1*
X3878768Y1554093D1*
X3871145Y1569053D1*
X3865956Y1585021D1*
X3863330Y1601605D1*
Y1618395D1*
X3864005Y1624099D1*
X3857737Y1624126D1*
Y1836526D1*
X4033342D1*
X4033320Y2960240D1*
X4021302Y2951884D1*
X4012314Y2946850D1*
X4002958Y2942537D1*
X3993293Y2938971D1*
X3983378Y2936175D1*
X3973274Y2934165D1*
X3963044Y2932954D1*
X3952750Y2932550D1*
X3942456Y2932954D1*
X3932226Y2934165D1*
X3922122Y2936175D1*
X3912207Y2938971D1*
X3902542Y2942537D1*
X3893186Y2946850D1*
X3884198Y2951884D1*
X3875633Y2957607D1*
X3867542Y2963985D1*
X3859978Y2970978D1*
X3852985Y2978542D1*
X3846607Y2986633D1*
X3840884Y2995198D1*
X3835850Y3004186D1*
X3831537Y3013542D1*
X3828041Y3023018D1*
X3646148Y3023020D1*
X3646201Y3012799D1*
X3333801D1*
Y3185199D1*
X3646201D1*
Y3168383D1*
X3873613Y3168420D1*
X3884198Y3175616D1*
X3893186Y3180650D1*
X3902542Y3184963D1*
X3912207Y3188529D1*
X3922122Y3191325D1*
X3932226Y3193335D1*
X3942456Y3194546D1*
X3952750Y3194950D1*
X3963044Y3194546D1*
X3973274Y3193335D1*
X3983378Y3191325D1*
X3993293Y3188529D1*
X4002958Y3184963D1*
X4012314Y3180650D1*
X4021302Y3175616D1*
X4033312Y3167177D1*
X4033320Y3233756D1*
X3833800Y3233800D1*
Y3272296D1*
X3824843Y3265157D1*
X3816702Y3257631D1*
X3807995Y3250767D1*
X3798777Y3244607D1*
X3789103Y3239190D1*
X3779035Y3234548D1*
X3768633Y3230711D1*
X3757962Y3227701D1*
X3747089Y3225538D1*
X3736078Y3224235D1*
X3725000Y3223800D1*
X3713922Y3224235D1*
X3702911Y3225538D1*
X3692038Y3227701D1*
X3681367Y3230711D1*
X3670965Y3234548D1*
X3660897Y3239190D1*
X3651223Y3244607D1*
X3642005Y3250767D1*
X3633298Y3257631D1*
X3625157Y3265157D1*
X3617631Y3273298D1*
X3610767Y3282005D1*
X3604607Y3291223D1*
X3599190Y3300897D1*
X3594548Y3310965D1*
X3590711Y3321367D1*
X3587701Y3332038D1*
X3585538Y3342911D1*
X3584235Y3353922D1*
X3583800Y3365000D1*
X3584235Y3376078D1*
X3585538Y3387089D1*
X3587701Y3397962D1*
X3590711Y3408633D1*
X3594548Y3419035D1*
X3599190Y3429103D1*
X3604607Y3438777D1*
X3610767Y3447995D1*
X3617631Y3456702D1*
X3625157Y3464843D1*
X3633298Y3472369D1*
X3642005Y3479233D1*
X3651223Y3485393D1*
X3660897Y3490810D1*
X3670965Y3495452D1*
X3681367Y3499289D1*
X3692038Y3502299D1*
X3702911Y3504462D1*
X3713922Y3505765D1*
X3725000Y3506200D1*
X3736078Y3505765D1*
X3747089Y3504462D1*
X3757962Y3502299D1*
X3768633Y3499289D1*
X3779035Y3495452D1*
X3789103Y3490810D1*
X3798777Y3485393D1*
X3807995Y3479233D1*
X3816702Y3472369D1*
X3824843Y3464843D1*
X3833790Y3454899D1*
X3833800Y3456200D1*
X4033312D1*
X4033320Y4033326D1*
X1779863Y4033320D1*
X1791423Y4026018D1*
X1804095Y4015195D1*
X1814918Y4002523D1*
X1821954Y3991298D1*
X1833690Y3994929D1*
X1848502Y3997275D1*
X1863498D1*
X1878310Y3994929D1*
X1892573Y3990295D1*
X1905935Y3983487D1*
X1918068Y3974672D1*
X1919467Y3973379D1*
X1926825Y3979318D1*
X1939612Y3987153D1*
X1953467Y3992892D1*
X1968050Y3996393D1*
X1983000Y3997570D1*
X1997950Y3996393D1*
X2012533Y3992892D1*
X2026388Y3987153D1*
X2039175Y3979318D1*
X2050578Y3969578D1*
X2060318Y3958175D1*
X2061116Y3956980D1*
X2164995Y3957000D1*
Y3916511D1*
X2174577Y3924418D1*
X2188786Y3933125D1*
X2204182Y3939502D1*
X2220387Y3943393D1*
X2237000Y3944700D1*
X2253613Y3943393D1*
X2269818Y3939502D1*
X2285214Y3933125D1*
X2299423Y3924418D1*
X2312095Y3913595D1*
X2322918Y3900923D1*
X2331625Y3886714D1*
X2335443Y3878255D1*
X2363834Y3906647D1*
X2363800Y3986200D1*
X2716200D1*
Y3944540D1*
X2728005Y3939776D1*
X2737732Y3933816D1*
X2746407Y3926407D1*
X2812582Y3859915D1*
X2819287Y3850686D1*
X2824466Y3840521D1*
X2827991Y3829671D1*
X2829776Y3818404D1*
X2830000Y3767700D1*
Y3653501D1*
X2844139Y3645809D1*
X2854990Y3638559D1*
X2865238Y3630479D1*
X2874821Y3621621D1*
X2883679Y3612038D1*
X2891759Y3601790D1*
X2899009Y3590939D1*
X2905385Y3579553D1*
X2910849Y3567702D1*
X2915366Y3555459D1*
X2918908Y3542899D1*
X2921454Y3530099D1*
X2922988Y3517140D1*
X2923500Y3504100D1*
X2922988Y3491060D1*
X2921454Y3478101D1*
X2918908Y3465301D1*
X2915366Y3452741D1*
X2910849Y3440498D1*
X2905385Y3428647D1*
X2895978Y3412726D1*
X3184863Y3412700D1*
X3443798Y3671612D1*
X3443800Y3841200D1*
X3644835D1*
X3660897Y3850810D1*
X3670965Y3855452D1*
X3681367Y3859289D1*
X3692038Y3862299D1*
X3702911Y3864462D1*
X3713922Y3865765D1*
X3725000Y3866200D1*
X3736078Y3865765D1*
X3747089Y3864462D1*
X3757962Y3862299D1*
X3768633Y3859289D1*
X3779035Y3855452D1*
X3789103Y3850810D1*
X3798777Y3845393D1*
X3807995Y3839233D1*
X3816702Y3832369D1*
X3824843Y3824843D1*
X3832369Y3816702D1*
X3839233Y3807995D1*
X3845393Y3798777D1*
X3850810Y3789103D1*
X3855452Y3779035D1*
X3859289Y3768633D1*
X3862299Y3757962D1*
X3864462Y3747089D1*
X3865765Y3736078D1*
X3866200Y3725000D1*
X3865765Y3713922D1*
X3864462Y3702911D1*
X3862299Y3692038D1*
X3859289Y3681367D1*
X3855452Y3670965D1*
X3850810Y3660897D1*
X3845393Y3651223D1*
X3839233Y3642005D1*
X3832369Y3633298D1*
X3824843Y3625157D1*
X3816702Y3617631D1*
X3807995Y3610767D1*
X3798777Y3604607D1*
X3789103Y3599190D1*
X3779035Y3594548D1*
X3768633Y3590711D1*
X3757962Y3587701D1*
X3747089Y3585538D1*
X3736078Y3584235D1*
X3725000Y3583800D1*
X3713922Y3584235D1*
X3702911Y3585538D1*
X3692038Y3587701D1*
X3681367Y3590711D1*
X3670965Y3594548D1*
X3660897Y3599190D1*
X3651223Y3604607D1*
X3642005Y3610767D1*
X3632058Y3618777D1*
X3596554Y3618740D1*
X3262215Y3284718D1*
X3252986Y3278013D1*
X3242821Y3272834D1*
X3231972Y3269309D1*
X3220704Y3267524D1*
X3170000Y3267300D1*
X2445137D1*
X2412669Y3234856D1*
X2412700Y2675137D1*
X2418816Y2667732D1*
X2424776Y2658005D1*
X2429142Y2647466D1*
X2431805Y2636373D1*
X2432700Y2625000D1*
Y2580059D1*
X2530110Y2482704D1*
X2566504Y2482700D1*
X2575509Y2491363D1*
X2589093Y2501232D1*
X2604053Y2508855D1*
X2620021Y2514044D1*
X2636605Y2516670D1*
X2653395D1*
X2669979Y2514044D1*
X2685947Y2508855D1*
X2700907Y2501232D1*
X2714491Y2491363D1*
X2726363Y2479491D1*
X2736232Y2465907D1*
X2743855Y2450947D1*
X2749044Y2434979D1*
X2751670Y2418395D1*
Y2401605D1*
X2749044Y2385021D1*
X2748251Y2382210D1*
X2756972Y2380692D1*
X2767821Y2377166D1*
X2777986Y2371987D1*
X2787215Y2365282D1*
X2833833Y2318980D1*
X3105282Y2047215D1*
X3111987Y2037986D1*
X3117166Y2027821D1*
X3120692Y2016972D1*
X3122476Y2005704D1*
X3122700Y1993496D1*
X3131363Y1984491D1*
X3141232Y1970907D1*
X3148855Y1955947D1*
X3154044Y1939979D1*
X3156670Y1923395D1*
Y1906605D1*
X3154044Y1890021D1*
X3148855Y1874053D1*
X3141232Y1859093D1*
X3131363Y1845509D1*
X3119491Y1833637D1*
X3105907Y1823768D1*
X3090947Y1816145D1*
X3074979Y1810956D1*
X3058395Y1808330D1*
X3041605D1*
X3028144Y1810335D1*
X3007699Y1789885D1*
X3007700Y1445059D1*
X3036581Y1416232D1*
X3196200Y1416200D1*
Y1153800D1*
X2933800D1*
Y1313351D1*
X2879718Y1367785D1*
X2873013Y1377014D1*
X2867834Y1387179D1*
X2864308Y1398028D1*
X2862523Y1409318D1*
X2853374Y1405560D1*
X2837215Y1389718D1*
X2827986Y1383013D1*
X2817821Y1377834D1*
X2806972Y1374308D1*
X2795704Y1372524D1*
X2736152Y1372300D1*
X2736200Y1153800D1*
X2473800D1*
Y1372296D1*
X2410137Y1372300D1*
X2407772Y1357772D1*
X2414765Y1350208D1*
X2421143Y1342117D1*
X2426866Y1333552D1*
X2431900Y1324564D1*
X2436213Y1315208D1*
X2439779Y1305543D1*
X2442575Y1295628D1*
X2444585Y1285524D1*
X2445796Y1275294D1*
X2446200Y1265000D1*
X2445796Y1254706D1*
X2444585Y1244476D1*
X2442575Y1234372D1*
X2439779Y1224457D1*
X2436213Y1214792D1*
X2431900Y1205436D1*
X2426866Y1196448D1*
X2421143Y1187883D1*
X2414765Y1179792D1*
X2407772Y1172228D1*
X2400208Y1165235D1*
X2392117Y1158857D1*
X2383552Y1153134D1*
X2374564Y1148100D1*
X2365208Y1143787D1*
X2355543Y1140221D1*
X2345628Y1137425D1*
X2335524Y1135415D1*
X2325294Y1134204D1*
X2315000Y1133800D1*
X2304706Y1134204D1*
X2294476Y1135415D1*
X2284372Y1137425D1*
X2274457Y1140221D1*
X2264792Y1143787D1*
X2255436Y1148100D1*
X2246448Y1153134D1*
X2237883Y1158857D1*
X2229792Y1165235D1*
X2222228Y1172228D1*
X2215235Y1179792D1*
X2208857Y1187883D1*
X2203134Y1196448D1*
X2198100Y1205436D1*
X2193787Y1214792D1*
X2188463Y1230693D1*
X2184779Y1224457D1*
X2181213Y1214792D1*
X2176900Y1205436D1*
X2171866Y1196448D1*
X2166143Y1187883D1*
X2159765Y1179792D1*
X2152772Y1172228D1*
X2145208Y1165235D1*
X2137117Y1158857D1*
X2128552Y1153134D1*
X2119564Y1148100D1*
X2110208Y1143787D1*
X2100543Y1140221D1*
X2090628Y1137425D1*
X2080524Y1135415D1*
X2070294Y1134204D1*
X2060000Y1133800D1*
X2049706Y1134204D1*
X2039476Y1135415D1*
X2029372Y1137425D1*
X2019457Y1140221D1*
X2009792Y1143787D1*
X2000436Y1148100D1*
X1991448Y1153134D1*
X1982883Y1158857D1*
X1974792Y1165235D1*
X1967228Y1172228D1*
X1960235Y1179792D1*
X1953857Y1187883D1*
X1948134Y1196448D1*
X1943100Y1205436D1*
X1938787Y1214792D1*
X1935221Y1224457D1*
X1932425Y1234372D1*
X1930415Y1244476D1*
X1929204Y1254706D1*
X1928800Y1265000D1*
X1929204Y1275294D1*
X1930415Y1285524D1*
X1932425Y1295628D1*
X1935221Y1305543D1*
X1938787Y1315208D1*
X1943100Y1324564D1*
X1948134Y1333552D1*
X1953857Y1342117D1*
X1960235Y1350208D1*
X1967228Y1357772D1*
X1974792Y1364765D1*
X1982883Y1371143D1*
X1991448Y1376866D1*
X2000436Y1381900D1*
X2009792Y1386213D1*
X2019457Y1389779D1*
X2029372Y1392575D1*
X2039476Y1394585D1*
X2049706Y1395796D1*
X2060000Y1396200D1*
X2070294Y1395796D1*
X2080524Y1394585D1*
X2090628Y1392575D1*
X2100543Y1389779D1*
X2110208Y1386213D1*
X2119564Y1381900D1*
X2128853Y1376665D1*
X2163431Y1411245D1*
X2154340Y1419340D1*
X2143435Y1432107D1*
X2134662Y1446423D1*
X2128237Y1461935D1*
X2124317Y1478262D1*
X2123000Y1495000D1*
X2124317Y1511738D1*
X2128237Y1528065D1*
X2134662Y1543577D1*
X2143435Y1557893D1*
X2153203Y1569431D1*
X2127804Y1592548D1*
X2117357Y1602778D1*
X2114186Y1607552D1*
X2094488Y1643460D1*
X2091992Y1651311D1*
X2085146Y1691806D1*
X2085365Y1700041D1*
X2092437Y1740689D1*
X2095389Y1748381D1*
X2115607Y1784800D1*
X2121088Y1791253D1*
X2151939Y1819584D1*
X2158692Y1823754D1*
X2197462Y1841870D1*
X2202747Y1843403D1*
X2247670Y1849922D1*
X2255063Y1849632D1*
X2297937Y1843255D1*
X2305068Y1840799D1*
X2343747Y1822487D1*
X2350152Y1817800D1*
X2380857Y1789311D1*
X2385814Y1782448D1*
X2405798Y1745890D1*
X2408133Y1738001D1*
X2414854Y1698194D1*
X2414635Y1689959D1*
X2407563Y1649311D1*
X2404611Y1641620D1*
X2384393Y1605200D1*
X2382636Y1602770D1*
X2395000Y1601200D1*
X2683457D1*
X2683800Y1645000D1*
Y2088379D1*
X2668395Y2103330D1*
X2651605D1*
X2635021Y2105956D1*
X2619053Y2111145D1*
X2604093Y2118768D1*
X2590509Y2128637D1*
X2578637Y2140509D1*
X2568768Y2154093D1*
X2561145Y2169053D1*
X2555956Y2185021D1*
X2553330Y2201605D1*
Y2218395D1*
X2555956Y2234979D1*
X2556607Y2237284D1*
X2474296Y2237524D1*
X2463028Y2239308D1*
X2452179Y2242834D1*
X2442014Y2248013D1*
X2437250Y2251198D1*
X2432595Y2252453D1*
X2424972Y2237493D1*
X2415103Y2223909D1*
X2403231Y2212037D1*
X2389647Y2202168D1*
X2374687Y2194545D1*
X2360077Y2189739D1*
X2361133Y2174770D1*
X2359816Y2158032D1*
X2355896Y2141705D1*
X2349471Y2126193D1*
X2340698Y2111877D1*
X2329794Y2099110D1*
X2317026Y2088205D1*
X2302710Y2079432D1*
X2287198Y2073007D1*
X2270872Y2069087D1*
X2254133Y2067770D1*
X2237395Y2069087D1*
X2221069Y2073007D1*
X2205556Y2079432D1*
X2191240Y2088205D1*
X2178473Y2099110D1*
X2167569Y2111877D1*
X2165618Y2114797D1*
X2155323Y2123363D1*
X1929891Y2348795D1*
X1921133Y2340085D1*
X1915338Y2326423D1*
X1906565Y2312107D1*
X1895660Y2299340D1*
X1882893Y2288435D1*
X1868577Y2279662D1*
X1853065Y2273237D1*
X1836738Y2269317D1*
X1820000Y2268000D1*
X1803262Y2269317D1*
X1786935Y2273237D1*
X1771423Y2279662D1*
X1757107Y2288435D1*
X1744340Y2299340D1*
X1733435Y2312107D1*
X1724662Y2326423D1*
X1718237Y2341935D1*
X1714317Y2358262D1*
X1713000Y2375000D1*
X1714317Y2391738D1*
X1718237Y2408065D1*
X1724662Y2423577D1*
X1733435Y2437893D1*
X1744340Y2450660D1*
X1757107Y2461565D1*
X1768817Y2468878D1*
X1768800Y3305176D1*
X1735947Y3338006D1*
X1715301Y3339946D1*
X1702501Y3342492D1*
X1689941Y3346034D1*
X1677698Y3350551D1*
X1665847Y3356015D1*
X1654461Y3362391D1*
X1643610Y3369641D1*
X1633362Y3377721D1*
X1623779Y3386579D1*
X1614921Y3396162D1*
X1605850Y3407894D1*
X1572491Y3407900D1*
X1572500Y3385213D1*
X1596201Y3385199D1*
Y3212799D1*
X1283801D1*
Y3385199D1*
X1380070D1*
X1380101Y3504129D1*
X1367500Y3505203D1*
X1330100D1*
Y4033273D1*
X1062675Y4033320D1*
X1062630Y2532324D1*
X1075768Y2543107D1*
X1084987Y2549266D1*
X1094660Y2554683D1*
X1104728Y2559325D1*
X1115130Y2563163D1*
X1125801Y2566172D1*
X1136675Y2568335D1*
X1147685Y2569638D1*
X1158763Y2570073D1*
X1169842Y2569638D1*
X1180852Y2568335D1*
X1191726Y2566172D1*
X1202397Y2563163D1*
X1212798Y2559325D1*
X1222867Y2554683D1*
X1232540Y2549266D1*
X1241759Y2543107D1*
X1250465Y2536243D1*
X1258607Y2528717D1*
X1266133Y2520575D1*
X1272997Y2511869D1*
X1279156Y2502650D1*
X1283790Y2494375D1*
X1283800Y2585200D1*
X1596200D1*
Y2412800D1*
X1299072D1*
X1296062Y2395911D1*
X1293038Y2385200D1*
X1596200D1*
Y2212800D1*
X1294990D1*
X3535043Y1255238D2*
X3532436Y1238778D1*
X3527286Y1222929D1*
X3519720Y1208081D1*
X3509925Y1194599D1*
X3498141Y1182815D1*
X3484659Y1173020D1*
X3469811Y1165454D1*
X3453962Y1160304D1*
X3437502Y1157697D1*
X3420838D1*
X3404378Y1160304D1*
X3388529Y1165454D1*
X3373681Y1173020D1*
X3360199Y1182815D1*
X3348415Y1194599D1*
X3338620Y1208081D1*
X3331054Y1222929D1*
X3325904Y1238778D1*
X3323297Y1255238D1*
Y1271902D1*
X3325904Y1288362D1*
X3331054Y1304211D1*
X3338620Y1319059D1*
X3348415Y1332541D1*
X3360199Y1344325D1*
X3373681Y1354120D1*
X3388529Y1361686D1*
X3398327Y1365129D1*
X3388529Y1368654D1*
X3373681Y1376220D1*
X3360199Y1386015D1*
X3348415Y1397799D1*
X3338620Y1411281D1*
X3331054Y1426129D1*
X3325904Y1441978D1*
X3323297Y1458438D1*
Y1475102D1*
X3325904Y1491562D1*
X3331054Y1507411D1*
X3338620Y1522259D1*
X3348415Y1535741D1*
X3360199Y1547525D1*
X3373681Y1557320D1*
X3388529Y1564886D1*
X3404378Y1570036D1*
X3420838Y1572643D1*
X3437502D1*
X3453962Y1570036D1*
X3469811Y1564886D1*
X3484659Y1557320D1*
X3498141Y1547525D1*
X3509925Y1535741D1*
X3519720Y1522259D1*
X3527286Y1507411D1*
X3532436Y1491562D1*
X3535043Y1475102D1*
Y1458438D1*
X3532436Y1441978D1*
X3527286Y1426129D1*
X3519720Y1411281D1*
X3509925Y1397799D1*
X3498141Y1386015D1*
X3484659Y1376220D1*
X3469811Y1368654D1*
X3460013Y1365211D1*
X3469811Y1361686D1*
X3484659Y1354120D1*
X3498141Y1344325D1*
X3509925Y1332541D1*
X3519720Y1319059D1*
X3527286Y1304211D1*
X3532436Y1288362D1*
X3535043Y1271902D1*
Y1255238D1*
X1298800Y1985200D2*
X1596200D1*
Y1812800D1*
X1283800D1*
Y1985200D1*
X1298800D1*
X1298801Y2785199D2*
X1596201D1*
Y2612799D1*
X1283801D1*
Y2785199D1*
X1298801D1*
Y2985199D2*
X1596201D1*
Y2812799D1*
X1283801D1*
Y2985199D1*
X1298801D1*
Y3185199D2*
X1596201D1*
Y3012799D1*
X1283801D1*
Y3185199D1*
X1298801D1*
D21*
X1158763Y2174873D3*
D22*
X3880543Y2301873D3*
X1158763Y2428873D3*
D23*
X2757300Y3504100D3*
X1741300D3*
X2249300Y1694000D3*
D24*
X2470000Y3705000D3*
Y3875000D3*
D25*
X1476300Y3651403D3*
X1176300D3*
X1476300Y3905430D3*
X1176300D3*
D24*
X3940000Y3345000D3*
Y3515000D3*
D28*
X2110000Y3775000D3*
Y3902000D3*
X1983000Y3775000D3*
Y3902000D3*
X1856000Y3775000D3*
Y3902000D3*
D29*
X2060000Y1265000D3*
X1550000D3*
X1805000D3*
X2315000D3*
D30*
X1158750Y3206627D3*
D29*
X3952750Y3063750D3*
D24*
X2610000Y3875000D3*
Y3705000D3*
X3550000Y3730000D3*
Y3900000D3*
D26*
X3798937Y1730327D3*
X3968937D3*
D33*
X2605000Y1285000D3*
X3065000D3*
X2605000Y1645000D3*
X3065000D3*
D41*
X1440000Y1899000D3*
Y2099000D3*
Y2299000D3*
Y2499000D3*
Y2699000D3*
Y2899000D3*
Y3099000D3*
Y3299000D3*
X3490000D3*
Y3099000D3*
Y2899000D3*
Y2699000D3*
Y2499000D3*
Y2299000D3*
Y2099000D3*
Y1899000D3*
D22*
X3725000Y3365000D3*
Y3725000D3*
X3365000D3*
M02*
