G04 DipTrace 3.0.0.1*
G04 Limbus-modelD-rev02.GTO*
%MOMM*%
G04 #@! TF.FileFunction,Legend,Top*
G04 #@! TF.Part,Single*
%ADD10C,0.25*%
%ADD31O,0.39184X0.39127*%
%ADD34O,0.41685X0.42*%
%ADD37O,0.3915X0.39169*%
%ADD43C,0.39117*%
%ADD90C,0.11765*%
%ADD91C,0.15686*%
%FSLAX35Y35*%
G04*
G71*
G90*
G75*
G01*
G04 TopSilk*
%LPD*%
X1741300Y3517989D2*
D10*
Y3494624D1*
X1755189Y3508513D2*
X2743411D1*
X2757300Y3494624D2*
Y3517989D1*
X1471673Y2173073D2*
X1281395D1*
X1376823Y2077873D2*
Y2268273D1*
X2624204Y3504207D2*
X1874396D1*
X1449947Y1219950D2*
Y1090050D1*
X4048300Y1174670D2*
X3318033D1*
Y1555670D1*
X4048300D1*
Y1174670D1*
D31*
X3627352Y2631644D3*
X3500003Y2655014D2*
D10*
Y2955000D1*
X3449997D1*
Y2655014D1*
X3500003D1*
X2169780Y2140117D2*
X2749800D1*
Y2720137D1*
X2169780D1*
Y2140117D1*
D34*
X2090662Y2008972D3*
G36*
X2169780Y2140117D2*
X2249685D1*
X2169780Y2220127D1*
Y2140117D1*
G37*
D37*
X1463738Y3161348D3*
X1210373Y3068676D2*
D10*
Y2768711D1*
X1510373Y3068676D2*
Y2768711D1*
X3290242Y1922080D2*
X3790252D1*
X3290242Y2182080D2*
X3790252D1*
Y1922080D2*
Y2182080D1*
X3290242Y2002080D2*
Y1922080D1*
Y2102080D2*
Y2182080D1*
Y2002080D2*
G03X3290242Y2102080I1J50000D01*
G01*
X3005000Y3545000D2*
G02X3005000Y3545000I540000J0D01*
G01*
D43*
X1523642Y1783361D3*
X1660983Y1769994D2*
D10*
Y1470000D1*
X1740943Y1769994D2*
Y1470000D1*
X1660983D2*
X1740943D1*
X1660983Y1769994D2*
X1740943D1*
X1540000Y3904120D2*
Y3412004D1*
X1060000Y3904188D2*
Y3412004D1*
X1157152Y3660000D2*
X1157500Y3669767D1*
X1158542Y3679486D1*
X1160274Y3689110D1*
X1162686Y3698593D1*
X1165767Y3707887D1*
X1169502Y3716948D1*
X1173873Y3725732D1*
X1178858Y3734195D1*
X1184434Y3742297D1*
X1190572Y3749998D1*
X1197244Y3757261D1*
X1204416Y3764049D1*
X1212054Y3770331D1*
X1220120Y3776075D1*
X1228576Y3781254D1*
X1237380Y3785842D1*
X1246488Y3789817D1*
X1255858Y3793159D1*
X1265442Y3795853D1*
X1275195Y3797885D1*
X1285068Y3799245D1*
X1295015Y3799927D1*
X1304985D1*
X1314932Y3799245D1*
X1324805Y3797885D1*
X1334558Y3795853D1*
X1344142Y3793159D1*
X1353512Y3789817D1*
X1362620Y3785842D1*
X1371424Y3781254D1*
X1379880Y3776075D1*
X1387946Y3770331D1*
X1395584Y3764049D1*
X1402756Y3757261D1*
X1409428Y3749998D1*
X1415566Y3742297D1*
X1421142Y3734195D1*
X1426127Y3725732D1*
X1430498Y3716948D1*
X1434233Y3707887D1*
X1437314Y3698593D1*
X1439726Y3689110D1*
X1441458Y3679486D1*
X1442500Y3669767D1*
X1442848Y3660000D1*
X1442500Y3650233D1*
X1441458Y3640514D1*
X1439726Y3630890D1*
X1437314Y3621407D1*
X1434233Y3612113D1*
X1430498Y3603052D1*
X1426127Y3594268D1*
X1421142Y3585805D1*
X1415566Y3577703D1*
X1409428Y3570002D1*
X1402756Y3562739D1*
X1395584Y3555951D1*
X1387946Y3549669D1*
X1379880Y3543925D1*
X1371424Y3538746D1*
X1362620Y3534158D1*
X1353512Y3530183D1*
X1344142Y3526841D1*
X1334558Y3524147D1*
X1324805Y3522115D1*
X1314932Y3520755D1*
X1304985Y3520073D1*
X1295015D1*
X1285068Y3520755D1*
X1275195Y3522115D1*
X1265442Y3524147D1*
X1255858Y3526841D1*
X1246488Y3530183D1*
X1237380Y3534158D1*
X1228576Y3538746D1*
X1220120Y3543925D1*
X1212054Y3549669D1*
X1204416Y3555951D1*
X1197244Y3562739D1*
X1190572Y3570002D1*
X1184434Y3577703D1*
X1178858Y3585805D1*
X1173873Y3594268D1*
X1169502Y3603052D1*
X1165767Y3612113D1*
X1162686Y3621407D1*
X1160274Y3630890D1*
X1158542Y3640514D1*
X1157500Y3650233D1*
X1157152Y3660000D1*
X2942464Y1765440D2*
X2637464Y1765334D1*
X2637536Y1555334D2*
X2942536Y1555440D1*
X2637464Y1765334D2*
X2637535Y1560332D1*
X2942535Y1560438D2*
X2942464Y1765440D1*
X2541602Y1438236D2*
D90*
X2534358Y1434614D1*
X2527030Y1427286D1*
X2523408Y1420042D1*
Y1405470D1*
X2527030Y1398142D1*
X2534358Y1390898D1*
X2541602Y1387192D1*
X2552552Y1383570D1*
X2570830D1*
X2581696Y1387192D1*
X2589024Y1390898D1*
X2596268Y1398142D1*
X2599974Y1405470D1*
Y1420042D1*
X2596268Y1427285D1*
X2589024Y1434613D1*
X2581696Y1438235D1*
X2599974Y1498237D2*
X2523492D1*
X2574452Y1461765D1*
Y1516431D1*
X2416602Y3405046D2*
X2409358Y3401425D1*
X2402030Y3394097D1*
X2398408Y3386853D1*
Y3372281D1*
X2402030Y3364953D1*
X2409358Y3357709D1*
X2416602Y3354003D1*
X2427552Y3350381D1*
X2445830D1*
X2456696Y3354003D1*
X2464024Y3357709D1*
X2471268Y3364953D1*
X2474974Y3372281D1*
Y3386853D1*
X2471268Y3394096D1*
X2464024Y3401424D1*
X2456696Y3405046D1*
X2398492Y3472292D2*
Y3435904D1*
X2431258Y3432282D1*
X2427636Y3435904D1*
X2423930Y3446854D1*
Y3457720D1*
X2427636Y3468670D1*
X2434880Y3475998D1*
X2445830Y3479620D1*
X2453074D1*
X2464024Y3475998D1*
X2471352Y3468670D1*
X2474974Y3457720D1*
Y3446854D1*
X2471352Y3435904D1*
X2467646Y3432282D1*
X2460402Y3428576D1*
X1103602Y3062170D2*
X1096358Y3058548D1*
X1089030Y3051220D1*
X1085408Y3043976D1*
Y3029404D1*
X1089030Y3022076D1*
X1096358Y3014832D1*
X1103602Y3011126D1*
X1114552Y3007504D1*
X1132830D1*
X1143696Y3011126D1*
X1151024Y3014832D1*
X1158268Y3022076D1*
X1161974Y3029404D1*
Y3043976D1*
X1158268Y3051220D1*
X1151024Y3058548D1*
X1143696Y3062170D1*
X1161974Y3100271D2*
X1085492Y3136743D1*
Y3085699D1*
X1882912Y1873948D2*
X1879290Y1881192D1*
X1871962Y1888520D1*
X1864718Y1892142D1*
X1850146D1*
X1842818Y1888520D1*
X1835574Y1881192D1*
X1831868Y1873948D1*
X1828246Y1862998D1*
Y1844720D1*
X1831868Y1833854D1*
X1835574Y1826526D1*
X1842818Y1819282D1*
X1850146Y1815576D1*
X1864718D1*
X1871962Y1819282D1*
X1879290Y1826526D1*
X1882912Y1833854D1*
X1924635Y1892057D2*
X1913769Y1888435D1*
X1910063Y1881192D1*
Y1873864D1*
X1913769Y1866620D1*
X1921013Y1862914D1*
X1935585Y1859292D1*
X1946535Y1855670D1*
X1953779Y1848342D1*
X1957401Y1841098D1*
Y1830148D1*
X1953779Y1822904D1*
X1950157Y1819198D1*
X1939207Y1815576D1*
X1924635D1*
X1913769Y1819198D1*
X1910063Y1822904D1*
X1906441Y1830148D1*
Y1841098D1*
X1910063Y1848342D1*
X1917391Y1855670D1*
X1928257Y1859292D1*
X1942829Y1862914D1*
X1950157Y1866620D1*
X1953779Y1873864D1*
Y1881192D1*
X1950157Y1888435D1*
X1939207Y1892057D1*
X1924635D1*
X2816857Y3268398D2*
X2813235Y3275642D1*
X2805907Y3282970D1*
X2798663Y3286592D1*
X2784091D1*
X2776763Y3282970D1*
X2769520Y3275642D1*
X2765813Y3268398D1*
X2762191Y3257448D1*
Y3239170D1*
X2765813Y3228304D1*
X2769520Y3220976D1*
X2776763Y3213732D1*
X2784091Y3210026D1*
X2798663D1*
X2805907Y3213732D1*
X2813235Y3220976D1*
X2816857Y3228304D1*
X2887809Y3261070D2*
X2884102Y3250120D1*
X2876859Y3242792D1*
X2865909Y3239170D1*
X2862287D1*
X2851337Y3242792D1*
X2844093Y3250120D1*
X2840387Y3261070D1*
Y3264692D1*
X2844093Y3275642D1*
X2851337Y3282886D1*
X2862287Y3286508D1*
X2865909D1*
X2876859Y3282886D1*
X2884102Y3275642D1*
X2887809Y3261070D1*
Y3242792D1*
X2884102Y3224598D1*
X2876859Y3213648D1*
X2865909Y3210026D1*
X2858665D1*
X2847715Y3213648D1*
X2844093Y3220976D1*
X1493548Y1169155D2*
Y1092589D1*
X1519070D1*
X1530020Y1096295D1*
X1537348Y1103539D1*
X1540970Y1110867D1*
X1544592Y1121733D1*
Y1140011D1*
X1540970Y1150961D1*
X1537348Y1158205D1*
X1530020Y1165533D1*
X1519070Y1169155D1*
X1493548D1*
X1568121Y1154499D2*
X1575449Y1158205D1*
X1586399Y1169071D1*
Y1092589D1*
X3311810Y2956592D2*
X3304566Y2953054D1*
X3297238Y2945726D1*
X3293616Y2938398D1*
X3289910Y2927448D1*
Y2909254D1*
X3293616Y2898304D1*
X3297238Y2891060D1*
X3304566Y2883732D1*
X3311810Y2880110D1*
X3326382D1*
X3333710Y2883732D1*
X3340954Y2891060D1*
X3344576Y2898304D1*
X3348282Y2909254D1*
Y2927448D1*
X3344576Y2938398D1*
X3340954Y2945726D1*
X3333710Y2953054D1*
X3326382Y2956592D1*
X3311810D1*
X3322760Y2894682D2*
X3344576Y2872782D1*
X3371812Y2941936D2*
X3379140Y2945642D1*
X3390090Y2956508D1*
Y2880026D1*
X1719020Y2678145D2*
Y2710911D1*
X1715314Y2721861D1*
X1711692Y2725567D1*
X1704448Y2729189D1*
X1697120D1*
X1689876Y2725567D1*
X1686170Y2721861D1*
X1682548Y2710911D1*
Y2678145D1*
X1759114D1*
X1719020Y2703667D2*
X1759114Y2729189D1*
X1700826Y2756424D2*
X1697204D1*
X1689876Y2760046D1*
X1686254Y2763668D1*
X1682632Y2770996D1*
Y2785568D1*
X1686254Y2792812D1*
X1689876Y2796434D1*
X1697204Y2800140D1*
X1704448D1*
X1711776Y2796434D1*
X1722642Y2789190D1*
X1759114Y2752718D1*
Y2803762D1*
X1719020Y3058828D2*
Y3091594D1*
X1715314Y3102544D1*
X1711692Y3106250D1*
X1704448Y3109872D1*
X1697120D1*
X1689876Y3106250D1*
X1686170Y3102544D1*
X1682548Y3091594D1*
Y3058828D1*
X1759114D1*
X1719020Y3084350D2*
X1759114Y3109872D1*
X1682632Y3140730D2*
Y3180739D1*
X1711776Y3158923D1*
Y3169873D1*
X1715398Y3177117D1*
X1719020Y3180739D1*
X1729970Y3184445D1*
X1737214D1*
X1748164Y3180739D1*
X1755492Y3173495D1*
X1759114Y3162545D1*
Y3151595D1*
X1755492Y3140729D1*
X1751786Y3137108D1*
X1744542Y3133401D1*
X1835380Y1987683D2*
X1868146D1*
X1879096Y1991389D1*
X1882802Y1995011D1*
X1886424Y2002255D1*
Y2009583D1*
X1882802Y2016827D1*
X1879096Y2020533D1*
X1868146Y2024155D1*
X1835380D1*
Y1947589D1*
X1860902Y1987683D2*
X1886424Y1947589D1*
X1946426D2*
Y2024071D1*
X1909954Y1973111D1*
X1964620D1*
X2264880Y3357192D2*
Y3389957D1*
X2261174Y3400907D1*
X2257552Y3404614D1*
X2250308Y3408236D1*
X2242980D1*
X2235736Y3404614D1*
X2232030Y3400907D1*
X2228408Y3389958D1*
Y3357192D1*
X2304974D1*
X2264880Y3382714D2*
X2304974Y3408235D1*
X2228492Y3475481D2*
Y3439093D1*
X2261258Y3435471D1*
X2257636Y3439093D1*
X2253930Y3450043D1*
Y3460909D1*
X2257636Y3471859D1*
X2264880Y3479187D1*
X2275830Y3482809D1*
X2283074D1*
X2294024Y3479187D1*
X2301352Y3471859D1*
X2304974Y3460909D1*
Y3450043D1*
X2301352Y3439093D1*
X2297646Y3435471D1*
X2290402Y3431765D1*
X3189880Y2154045D2*
Y2186811D1*
X3186174Y2197761D1*
X3182552Y2201467D1*
X3175308Y2205089D1*
X3167980D1*
X3160736Y2201467D1*
X3157030Y2197761D1*
X3153408Y2186811D1*
Y2154045D1*
X3229974D1*
X3189880Y2179567D2*
X3229974Y2205088D1*
X3164358Y2272334D2*
X3157114Y2268712D1*
X3153492Y2257762D1*
Y2250518D1*
X3157114Y2239568D1*
X3168064Y2232240D1*
X3186258Y2228618D1*
X3204452D1*
X3219024Y2232240D1*
X3226352Y2239568D1*
X3229974Y2250518D1*
Y2254140D1*
X3226352Y2265006D1*
X3219024Y2272334D1*
X3208074Y2275956D1*
X3204452D1*
X3193502Y2272334D1*
X3186258Y2265006D1*
X3182636Y2254140D1*
Y2250518D1*
X3186258Y2239568D1*
X3193502Y2232240D1*
X3204452Y2228618D1*
X1182191Y1342683D2*
X1214957D1*
X1225907Y1346389D1*
X1229613Y1350011D1*
X1233235Y1357255D1*
Y1364583D1*
X1229613Y1371827D1*
X1225907Y1375533D1*
X1214957Y1379155D1*
X1182191D1*
Y1302589D1*
X1207713Y1342683D2*
X1233235Y1302589D1*
X1271337D2*
X1307809Y1379071D1*
X1256765D1*
X1924880Y3291288D2*
Y3324054D1*
X1921174Y3335004D1*
X1917552Y3338710D1*
X1910308Y3342332D1*
X1902980D1*
X1895736Y3338710D1*
X1892030Y3335004D1*
X1888408Y3324054D1*
Y3291288D1*
X1964974D1*
X1924880Y3316810D2*
X1964974Y3342332D1*
X1903064Y3365861D2*
X1899358Y3373189D1*
X1888492Y3384139D1*
X1964974D1*
X1888492Y3429569D2*
X1892114Y3418619D1*
X1903064Y3411290D1*
X1921258Y3407669D1*
X1932208D1*
X1950402Y3411290D1*
X1961352Y3418618D1*
X1964974Y3429568D1*
Y3436812D1*
X1961352Y3447762D1*
X1950402Y3455006D1*
X1932208Y3458712D1*
X1921258D1*
X1903064Y3455006D1*
X1892114Y3447762D1*
X1888492Y3436812D1*
Y3429569D1*
X1903064Y3455006D2*
X1950402Y3411290D1*
X3729880Y2731288D2*
Y2764054D1*
X3726174Y2775004D1*
X3722552Y2778710D1*
X3715308Y2782332D1*
X3707980D1*
X3700736Y2778710D1*
X3697030Y2775004D1*
X3693408Y2764054D1*
Y2731288D1*
X3769974D1*
X3729880Y2756810D2*
X3769974Y2782332D1*
X3708064Y2805861D2*
X3704358Y2813189D1*
X3693492Y2824139D1*
X3769974D1*
X3693492Y2891384D2*
Y2854997D1*
X3726258Y2851375D1*
X3722636Y2854997D1*
X3718930Y2865947D1*
Y2876812D1*
X3722636Y2887762D1*
X3729880Y2895090D1*
X3740830Y2898712D1*
X3748074D1*
X3759024Y2895090D1*
X3766352Y2887762D1*
X3769974Y2876812D1*
Y2865947D1*
X3766352Y2854997D1*
X3762646Y2851375D1*
X3755402Y2847668D1*
X1429880Y1471758D2*
Y1504524D1*
X1426174Y1515474D1*
X1422552Y1519180D1*
X1415308Y1522802D1*
X1407980D1*
X1400736Y1519180D1*
X1397030Y1515474D1*
X1393408Y1504524D1*
Y1471758D1*
X1469974D1*
X1429880Y1497280D2*
X1469974Y1522802D1*
X1411686Y1550037D2*
X1408064D1*
X1400736Y1553659D1*
X1397114Y1557281D1*
X1393492Y1564609D1*
Y1579181D1*
X1397114Y1586425D1*
X1400736Y1590047D1*
X1408064Y1593753D1*
X1415308D1*
X1422636Y1590047D1*
X1433502Y1582803D1*
X1469974Y1546331D1*
Y1597375D1*
X1404358Y1664620D2*
X1397114Y1660998D1*
X1393492Y1650048D1*
Y1642805D1*
X1397114Y1631855D1*
X1408064Y1624526D1*
X1426258Y1620904D1*
X1444452D1*
X1459024Y1624526D1*
X1466352Y1631854D1*
X1469974Y1642804D1*
Y1646426D1*
X1466352Y1657292D1*
X1459024Y1664620D1*
X1448074Y1668242D1*
X1444452D1*
X1433502Y1664620D1*
X1426258Y1657292D1*
X1422636Y1646426D1*
Y1642804D1*
X1426258Y1631854D1*
X1433502Y1624526D1*
X1444452Y1620904D1*
X1139947Y1822683D2*
X1172713D1*
X1183663Y1826389D1*
X1187369Y1830011D1*
X1190991Y1837255D1*
Y1844583D1*
X1187369Y1851827D1*
X1183663Y1855533D1*
X1172713Y1859155D1*
X1139947D1*
Y1782589D1*
X1165469Y1822683D2*
X1190991Y1782589D1*
X1218226Y1840877D2*
Y1844499D1*
X1221848Y1851827D1*
X1225470Y1855449D1*
X1232798Y1859071D1*
X1247370D1*
X1254614Y1855449D1*
X1258236Y1851827D1*
X1261942Y1844499D1*
Y1837255D1*
X1258236Y1829927D1*
X1250992Y1819061D1*
X1214520Y1782589D1*
X1265564D1*
X1307287Y1859071D2*
X1296422Y1855449D1*
X1292715Y1848205D1*
Y1840877D1*
X1296422Y1833633D1*
X1303665Y1829927D1*
X1318237Y1826305D1*
X1329187Y1822683D1*
X1336431Y1815355D1*
X1340053Y1808111D1*
Y1797161D1*
X1336431Y1789917D1*
X1332809Y1786211D1*
X1321859Y1782589D1*
X1307287D1*
X1296422Y1786211D1*
X1292715Y1789917D1*
X1289093Y1797161D1*
Y1808111D1*
X1292715Y1815355D1*
X1300043Y1822683D1*
X1310909Y1826305D1*
X1325481Y1829927D1*
X1332809Y1833633D1*
X1336431Y1840877D1*
Y1848205D1*
X1332809Y1855449D1*
X1321859Y1859071D1*
X1307287D1*
X4033841Y2773729D2*
D91*
X3931753Y2734759D1*
X4033841Y2695900D1*
X3999812Y2710500D2*
Y2759129D1*
X3931754Y2873160D2*
X4033841D1*
X3931754Y2805102D1*
X4033841D1*
X3931754Y2938562D2*
X4033841D1*
X3931754Y2904533D2*
Y2972591D1*
X3528235Y1140148D2*
Y1038060D1*
X3632496Y1115889D2*
X3627666Y1125548D1*
X3617896Y1135319D1*
X3608237Y1140148D1*
X3588808D1*
X3579037Y1135319D1*
X3569379Y1125548D1*
X3564437Y1115889D1*
X3559608Y1101289D1*
Y1076919D1*
X3564437Y1062431D1*
X3569379Y1052660D1*
X3579037Y1043002D1*
X3588808Y1038060D1*
X3608237D1*
X3617896Y1043002D1*
X3627666Y1052660D1*
X3632496Y1062431D1*
X3731927Y1125548D2*
X3722268Y1135319D1*
X3707668Y1140148D1*
X3688239D1*
X3673639Y1135319D1*
X3663868Y1125548D1*
Y1115889D1*
X3668810Y1106119D1*
X3673639Y1101289D1*
X3683297Y1096460D1*
X3712497Y1086689D1*
X3722268Y1081860D1*
X3727097Y1076919D1*
X3731927Y1067260D1*
Y1052660D1*
X3722268Y1043002D1*
X3707668Y1038060D1*
X3688239D1*
X3673639Y1043002D1*
X3663868Y1052660D1*
X3763299Y1086689D2*
X3807099D1*
X3821587Y1091519D1*
X3826528Y1096460D1*
X3831358Y1106119D1*
Y1120719D1*
X3826528Y1130377D1*
X3821587Y1135319D1*
X3807099Y1140148D1*
X3763299D1*
Y1038060D1*
M02*
