M48
METRIC,0000.00
T01C0.486
T02C0.7
T03C0.9
T04C1.0
T05C1.2
%
T01
X+002425Y+001810
X+002230Y+001495
X+001705Y+001635
X+001325Y+001310
X+001675Y+002140
X+001820Y+002375
X+002249Y+002413
X+002334Y+002293
X+002254Y+002175
X+002255Y+002570
X+002465Y+002660
X+002645Y+002410
X+002660Y+002210
X+002865Y+002030
X+003050Y+001915
X+003065Y+002530
X+003180Y+002595
X+003325Y+002575
X+003700Y+002575
X+003880Y+002500
X+003825Y+002135
X+003780Y+001915
X+003970Y+001610
X+003685Y+001210
X+003280Y+001195
X+002955Y+002820
X+003050Y+003145
X+002560Y+003230
X+001135Y+003665
T02
X+003725Y+003365
X+003725Y+003725
X+003365Y+003725
T03
X+002060Y+001265
X+001805Y+001265
X+001550Y+001265
X+002315Y+001265
X+001159Y+003207
X+003953Y+003064
T04
X+001159Y+002175
X+001159Y+002429
X+001729Y+003737
X+001729Y+003940
X+002237Y+003838
X+003881Y+002302
X+003937Y+001365
X+003429Y+001264
X+003429Y+001467
T05
X+002757Y+003504
X+001741Y+003504
X+002249Y+001694
T00
M30
